M48
; DRILL file {KiCad 5.1.8-db9833491~88~ubuntu20.04.1} date Sat Mar 13 16:05:40 2021
; FORMAT={-:-/ absolute / metric / decimal}
; #@! TF.CreationDate,2021-03-13T16:05:40+01:00
; #@! TF.GenerationSoftware,Kicad,Pcbnew,5.1.8-db9833491~88~ubuntu20.04.1
FMAT,2
METRIC
T1C0.300
T2C1.000
%
G90
G05
T1
X5.551Y2.54
X5.933Y4.889
X6.059Y7.175
X6.441Y11.874
X6.504Y10.239
X7.202Y11.239
X7.266Y5.08
X7.456Y7.048
X7.495Y10.363
X7.583Y8.636
X8.536Y5.5
X8.663Y12.09
X10.314Y5.715
X10.441Y12.04
X10.441Y9.779
X11.647Y0.826
X11.965Y11.938
X12.6Y0.826
X17.363Y0.826
X17.502Y12.04
X18.252Y0.826
X18.671Y12.04
X19.458Y9.779
X20.474Y3.492
X22.188Y6.604
X22.384Y5.116
X22.442Y7.922
X22.735Y10.922
X23.141Y9.604
X23.268Y4.699
X23.395Y11.938
X23.585Y6.223
X24.348Y4.572
X24.411Y2.984
T2
X26.43Y11.493
X26.43Y8.954
X26.43Y6.413
X26.43Y3.873
X26.43Y1.333
X3.57Y11.493
X3.57Y8.954
X3.57Y6.413
X3.57Y3.873
X3.57Y1.333
T0
M30
