M48
;DRILL file {KiCad 5.0.2-bee76a0~70~ubuntu18.04.1} date pon 29 jul 2019 11:10:58 CEST
;FORMAT={-:-/ absolute / metric / decimal}
FMAT,2
METRIC,TZ
T1C0.300
T2C1.000
%
G90
G05
T1
X5.651Y2.54
X6.032Y4.889
X6.159Y7.175
X6.54Y11.874
X6.604Y10.239
X7.302Y11.239
X7.366Y5.08
X7.556Y7.048
X7.595Y10.363
X7.683Y8.636
X8.636Y5.255
X8.763Y12.09
X10.414Y5.715
X10.541Y12.04
X10.541Y9.779
X11.747Y0.826
X12.065Y11.938
X12.7Y0.826
X17.462Y0.826
X17.602Y12.04
X18.351Y0.826
X18.771Y12.04
X19.558Y9.779
X20.574Y3.492
X22.288Y6.604
X22.484Y5.116
X22.543Y7.922
X22.835Y10.922
X23.241Y9.604
X23.368Y4.699
X23.495Y11.938
X23.685Y6.223
X24.447Y4.572
X24.511Y2.984
T2
X4.127Y11.493
X4.127Y8.954
X4.127Y6.413
X4.127Y3.873
X4.127Y1.333
X25.971Y11.493
X25.971Y8.954
X25.971Y6.413
X25.971Y3.873
X25.971Y1.333
T0
M30
