G04 #@! TF.GenerationSoftware,KiCad,Pcbnew,5.0.2-bee76a0~70~ubuntu18.04.1*
G04 #@! TF.CreationDate,2019-07-29T11:10:54+02:00*
G04 #@! TF.ProjectId,SWD_Isolator,5357445f-4973-46f6-9c61-746f722e6b69,rev?*
G04 #@! TF.SameCoordinates,PX4148288PY2f7a4c0*
G04 #@! TF.FileFunction,Copper,L2,Bot*
G04 #@! TF.FilePolarity,Positive*
%FSLAX46Y46*%
G04 Gerber Fmt 4.6, Leading zero omitted, Abs format (unit mm)*
G04 Created by KiCad (PCBNEW 5.0.2-bee76a0~70~ubuntu18.04.1) date pon 29 jul 2019 11:10:54 CEST*
%MOMM*%
%LPD*%
G01*
G04 APERTURE LIST*
G04 #@! TA.AperFunction,ComponentPad*
%ADD10R,1.700000X1.700000*%
G04 #@! TD*
G04 #@! TA.AperFunction,ComponentPad*
%ADD11O,1.700000X1.700000*%
G04 #@! TD*
G04 #@! TA.AperFunction,ViaPad*
%ADD12C,0.600000*%
G04 #@! TD*
G04 #@! TA.AperFunction,Conductor*
%ADD13C,2.000000*%
G04 #@! TD*
G04 #@! TA.AperFunction,Conductor*
%ADD14C,0.300000*%
G04 #@! TD*
G04 #@! TA.AperFunction,Conductor*
%ADD15C,0.800000*%
G04 #@! TD*
G04 #@! TA.AperFunction,Conductor*
%ADD16C,0.200000*%
G04 #@! TD*
G04 APERTURE END LIST*
D10*
G04 #@! TO.P,J1,1*
G04 #@! TO.N,VCC*
X4127500Y1333500D03*
D11*
G04 #@! TO.P,J1,2*
G04 #@! TO.N,GND*
X4127500Y3873500D03*
G04 #@! TO.P,J1,3*
G04 #@! TO.N,Net-(J1-Pad3)*
X4127500Y6413500D03*
G04 #@! TO.P,J1,4*
G04 #@! TO.N,Net-(J1-Pad4)*
X4127500Y8953500D03*
G04 #@! TO.P,J1,5*
G04 #@! TO.N,Net-(J1-Pad5)*
X4127500Y11493500D03*
G04 #@! TD*
D10*
G04 #@! TO.P,J2,1*
G04 #@! TO.N,VDD*
X25971500Y1333500D03*
D11*
G04 #@! TO.P,J2,2*
G04 #@! TO.N,GNDA*
X25971500Y3873500D03*
G04 #@! TO.P,J2,3*
G04 #@! TO.N,Net-(J2-Pad3)*
X25971500Y6413500D03*
G04 #@! TO.P,J2,4*
G04 #@! TO.N,Net-(J2-Pad4)*
X25971500Y8953500D03*
G04 #@! TO.P,J2,5*
G04 #@! TO.N,Net-(J2-Pad5)*
X25971500Y11493500D03*
G04 #@! TD*
D12*
G04 #@! TO.N,VCC*
X10541000Y9779000D03*
X7683500Y8636000D03*
X8636000Y5255500D03*
X7556500Y7048500D03*
G04 #@! TO.N,GND*
X12700000Y825500D03*
X11747500Y825500D03*
X7366000Y5080000D03*
X6032500Y4889500D03*
X5651500Y2540000D03*
X6159500Y7175500D03*
X12065000Y11938000D03*
X7302500Y11239500D03*
X6540500Y11874500D03*
X8763000Y12090400D03*
X10541000Y12039600D03*
X7594600Y10363200D03*
G04 #@! TO.N,Net-(J1-Pad5)*
X6604000Y10238500D03*
X10414000Y5715000D03*
G04 #@! TO.N,GNDA*
X17462500Y825500D03*
X18351500Y825500D03*
X24447500Y4572000D03*
X24511000Y2984500D03*
X23368000Y4699000D03*
X23495000Y11938000D03*
X22834600Y10922000D03*
X17602200Y12039600D03*
X18770600Y12039600D03*
G04 #@! TO.N,Net-(J2-Pad5)*
X23241000Y9603500D03*
X20574000Y3492500D03*
X22483521Y5116373D03*
X23685500Y6223006D03*
G04 #@! TO.N,VDD*
X19558000Y9779000D03*
X22288500Y6604006D03*
X22542500Y7921512D03*
G04 #@! TD*
D13*
G04 #@! TO.N,VCC*
X4127500Y1333500D02*
X1275010Y1333500D01*
D14*
X10541000Y9779000D02*
X9398000Y8636000D01*
X9398000Y8636000D02*
X7683500Y8636000D01*
X8636000Y5255500D02*
X8636000Y5969000D01*
X8636000Y5969000D02*
X7556500Y7048500D01*
D13*
G04 #@! TO.N,GND*
X4127500Y3873500D02*
X1275010Y3873500D01*
D15*
X5329581Y3873500D02*
X5367681Y3911600D01*
X4127500Y3873500D02*
X5329581Y3873500D01*
X5367681Y3911600D02*
X6375400Y3911600D01*
D13*
G04 #@! TO.N,Net-(J1-Pad4)*
X4127500Y8953500D02*
X2925419Y8953500D01*
X2925419Y8953500D02*
X1275010Y8953500D01*
G04 #@! TO.N,Net-(J1-Pad3)*
X4127500Y6413500D02*
X1275010Y6413500D01*
G04 #@! TO.N,Net-(J1-Pad5)*
X4127500Y11493500D02*
X1275010Y11493500D01*
D14*
X6604000Y10238500D02*
X6604000Y8128000D01*
X7033499Y7698501D02*
X9255999Y7698501D01*
X6604000Y8128000D02*
X7033499Y7698501D01*
X9255999Y7698501D02*
X10414000Y6540500D01*
X10414000Y6540500D02*
X10414000Y5715000D01*
D13*
G04 #@! TO.N,GNDA*
X25971500Y3873500D02*
X28823990Y3873500D01*
D15*
X24769419Y3873500D02*
X24756719Y3860800D01*
X25971500Y3873500D02*
X24769419Y3873500D01*
X24756719Y3860800D02*
X23647400Y3860800D01*
D13*
G04 #@! TO.N,Net-(J2-Pad5)*
X25971500Y11493500D02*
X28823990Y11493500D01*
D14*
X22197873Y5116373D02*
X22483521Y5116373D01*
X20574000Y3492500D02*
X22197873Y5116373D01*
X23685500Y6413500D02*
X23685500Y6223006D01*
X23812500Y6540500D02*
X23685500Y6413500D01*
X23241000Y9603500D02*
X23812500Y9032000D01*
X23812500Y9032000D02*
X23812500Y6540500D01*
D13*
G04 #@! TO.N,Net-(J2-Pad3)*
X25971500Y6413500D02*
X28823990Y6413500D01*
G04 #@! TO.N,Net-(J2-Pad4)*
X25971500Y8953500D02*
X28823990Y8953500D01*
G04 #@! TO.N,VDD*
X25971500Y1333500D02*
X26416000Y1333500D01*
X26416000Y1333500D02*
X28823990Y1333500D01*
D14*
X22542500Y6858006D02*
X22288500Y6604006D01*
X22542500Y7921512D02*
X22542500Y6858006D01*
X20685012Y9779000D02*
X22242501Y8221511D01*
X22242501Y8221511D02*
X22542500Y7921512D01*
X19558000Y9779000D02*
X20685012Y9779000D01*
G04 #@! TD*
D16*
G04 #@! TO.N,GND*
G36*
X12981000Y429000D02*
X5327594Y429000D01*
X5338435Y483500D01*
X5338435Y708658D01*
X5402940Y805196D01*
X5508026Y1333500D01*
X5402940Y1861804D01*
X5338435Y1958342D01*
X5338435Y2183500D01*
X5310960Y2321624D01*
X5243500Y2422586D01*
X5243500Y3363640D01*
X5353301Y3628729D01*
X5276413Y3823500D01*
X5243500Y3823500D01*
X5243500Y3923500D01*
X5276413Y3923500D01*
X5353301Y4118271D01*
X5243500Y4383360D01*
X5243500Y5646578D01*
X5402940Y5885196D01*
X5508026Y6413500D01*
X5402940Y6941804D01*
X5243500Y7180422D01*
X5243500Y8186578D01*
X5402940Y8425196D01*
X5508026Y8953500D01*
X5402940Y9481804D01*
X5243500Y9720422D01*
X5243500Y10368589D01*
X5950000Y10368589D01*
X5950000Y10108411D01*
X6049565Y9868039D01*
X6100000Y9817604D01*
X6100001Y8177636D01*
X6090128Y8128000D01*
X6129243Y7931350D01*
X6212521Y7806716D01*
X6212523Y7806714D01*
X6240638Y7764637D01*
X6282715Y7736522D01*
X6642019Y7377218D01*
X6670136Y7335138D01*
X6836848Y7223744D01*
X6914783Y7208242D01*
X6902500Y7178589D01*
X6902500Y6918411D01*
X7002065Y6678039D01*
X7186039Y6494065D01*
X7426411Y6394500D01*
X7497737Y6394500D01*
X8132001Y5760235D01*
X8132001Y5676397D01*
X8081565Y5625961D01*
X7982000Y5385589D01*
X7982000Y5125411D01*
X8081565Y4885039D01*
X8265539Y4701065D01*
X8505911Y4601500D01*
X8766089Y4601500D01*
X9006461Y4701065D01*
X9190435Y4885039D01*
X9290000Y5125411D01*
X9290000Y5385589D01*
X9190435Y5625961D01*
X9140000Y5676396D01*
X9140000Y5919365D01*
X9149873Y5969000D01*
X9110757Y6165651D01*
X9027479Y6290285D01*
X9027478Y6290286D01*
X8999363Y6332363D01*
X8957286Y6360478D01*
X8210500Y7107263D01*
X8210500Y7178589D01*
X8203909Y7194501D01*
X9047236Y7194501D01*
X9910000Y6331736D01*
X9910000Y6135896D01*
X9859565Y6085461D01*
X9760000Y5845089D01*
X9760000Y5584911D01*
X9859565Y5344539D01*
X10043539Y5160565D01*
X10283911Y5061000D01*
X10544089Y5061000D01*
X10784461Y5160565D01*
X10968435Y5344539D01*
X11068000Y5584911D01*
X11068000Y5845089D01*
X10968435Y6085461D01*
X10918000Y6135896D01*
X10918000Y6490865D01*
X10927873Y6540500D01*
X10888757Y6737151D01*
X10805479Y6861785D01*
X10805478Y6861786D01*
X10777363Y6903863D01*
X10735286Y6931978D01*
X9647479Y8019784D01*
X9619362Y8061864D01*
X9499082Y8142233D01*
X9594651Y8161243D01*
X9761363Y8272637D01*
X9789480Y8314717D01*
X10599763Y9125000D01*
X10671089Y9125000D01*
X10911461Y9224565D01*
X11095435Y9408539D01*
X11195000Y9648911D01*
X11195000Y9909089D01*
X11095435Y10149461D01*
X10911461Y10333435D01*
X10671089Y10433000D01*
X10410911Y10433000D01*
X10170539Y10333435D01*
X9986565Y10149461D01*
X9887000Y9909089D01*
X9887000Y9837763D01*
X9189237Y9140000D01*
X8104396Y9140000D01*
X8053961Y9190435D01*
X7813589Y9290000D01*
X7553411Y9290000D01*
X7313039Y9190435D01*
X7129065Y9006461D01*
X7108000Y8955605D01*
X7108000Y9817604D01*
X7158435Y9868039D01*
X7258000Y10108411D01*
X7258000Y10368589D01*
X7158435Y10608961D01*
X6974461Y10792935D01*
X6734089Y10892500D01*
X6473911Y10892500D01*
X6233539Y10792935D01*
X6049565Y10608961D01*
X5950000Y10368589D01*
X5243500Y10368589D01*
X5243500Y10726578D01*
X5402940Y10965196D01*
X5508026Y11493500D01*
X5402940Y12021804D01*
X5243500Y12260422D01*
X5243500Y12398000D01*
X12981000Y12398000D01*
X12981000Y429000D01*
X12981000Y429000D01*
G37*
X12981000Y429000D02*
X5327594Y429000D01*
X5338435Y483500D01*
X5338435Y708658D01*
X5402940Y805196D01*
X5508026Y1333500D01*
X5402940Y1861804D01*
X5338435Y1958342D01*
X5338435Y2183500D01*
X5310960Y2321624D01*
X5243500Y2422586D01*
X5243500Y3363640D01*
X5353301Y3628729D01*
X5276413Y3823500D01*
X5243500Y3823500D01*
X5243500Y3923500D01*
X5276413Y3923500D01*
X5353301Y4118271D01*
X5243500Y4383360D01*
X5243500Y5646578D01*
X5402940Y5885196D01*
X5508026Y6413500D01*
X5402940Y6941804D01*
X5243500Y7180422D01*
X5243500Y8186578D01*
X5402940Y8425196D01*
X5508026Y8953500D01*
X5402940Y9481804D01*
X5243500Y9720422D01*
X5243500Y10368589D01*
X5950000Y10368589D01*
X5950000Y10108411D01*
X6049565Y9868039D01*
X6100000Y9817604D01*
X6100001Y8177636D01*
X6090128Y8128000D01*
X6129243Y7931350D01*
X6212521Y7806716D01*
X6212523Y7806714D01*
X6240638Y7764637D01*
X6282715Y7736522D01*
X6642019Y7377218D01*
X6670136Y7335138D01*
X6836848Y7223744D01*
X6914783Y7208242D01*
X6902500Y7178589D01*
X6902500Y6918411D01*
X7002065Y6678039D01*
X7186039Y6494065D01*
X7426411Y6394500D01*
X7497737Y6394500D01*
X8132001Y5760235D01*
X8132001Y5676397D01*
X8081565Y5625961D01*
X7982000Y5385589D01*
X7982000Y5125411D01*
X8081565Y4885039D01*
X8265539Y4701065D01*
X8505911Y4601500D01*
X8766089Y4601500D01*
X9006461Y4701065D01*
X9190435Y4885039D01*
X9290000Y5125411D01*
X9290000Y5385589D01*
X9190435Y5625961D01*
X9140000Y5676396D01*
X9140000Y5919365D01*
X9149873Y5969000D01*
X9110757Y6165651D01*
X9027479Y6290285D01*
X9027478Y6290286D01*
X8999363Y6332363D01*
X8957286Y6360478D01*
X8210500Y7107263D01*
X8210500Y7178589D01*
X8203909Y7194501D01*
X9047236Y7194501D01*
X9910000Y6331736D01*
X9910000Y6135896D01*
X9859565Y6085461D01*
X9760000Y5845089D01*
X9760000Y5584911D01*
X9859565Y5344539D01*
X10043539Y5160565D01*
X10283911Y5061000D01*
X10544089Y5061000D01*
X10784461Y5160565D01*
X10968435Y5344539D01*
X11068000Y5584911D01*
X11068000Y5845089D01*
X10968435Y6085461D01*
X10918000Y6135896D01*
X10918000Y6490865D01*
X10927873Y6540500D01*
X10888757Y6737151D01*
X10805479Y6861785D01*
X10805478Y6861786D01*
X10777363Y6903863D01*
X10735286Y6931978D01*
X9647479Y8019784D01*
X9619362Y8061864D01*
X9499082Y8142233D01*
X9594651Y8161243D01*
X9761363Y8272637D01*
X9789480Y8314717D01*
X10599763Y9125000D01*
X10671089Y9125000D01*
X10911461Y9224565D01*
X11095435Y9408539D01*
X11195000Y9648911D01*
X11195000Y9909089D01*
X11095435Y10149461D01*
X10911461Y10333435D01*
X10671089Y10433000D01*
X10410911Y10433000D01*
X10170539Y10333435D01*
X9986565Y10149461D01*
X9887000Y9909089D01*
X9887000Y9837763D01*
X9189237Y9140000D01*
X8104396Y9140000D01*
X8053961Y9190435D01*
X7813589Y9290000D01*
X7553411Y9290000D01*
X7313039Y9190435D01*
X7129065Y9006461D01*
X7108000Y8955605D01*
X7108000Y9817604D01*
X7158435Y9868039D01*
X7258000Y10108411D01*
X7258000Y10368589D01*
X7158435Y10608961D01*
X6974461Y10792935D01*
X6734089Y10892500D01*
X6473911Y10892500D01*
X6233539Y10792935D01*
X6049565Y10608961D01*
X5950000Y10368589D01*
X5243500Y10368589D01*
X5243500Y10726578D01*
X5402940Y10965196D01*
X5508026Y11493500D01*
X5402940Y12021804D01*
X5243500Y12260422D01*
X5243500Y12398000D01*
X12981000Y12398000D01*
X12981000Y429000D01*
G04 #@! TO.N,GNDA*
G36*
X24919000Y12355456D02*
X24696060Y12021804D01*
X24590974Y11493500D01*
X24696060Y10965196D01*
X24919000Y10631543D01*
X24919000Y9815457D01*
X24696060Y9481804D01*
X24590974Y8953500D01*
X24696060Y8425196D01*
X24919000Y8091543D01*
X24919000Y7275457D01*
X24696060Y6941804D01*
X24590974Y6413500D01*
X24696060Y5885196D01*
X24919000Y5551543D01*
X24919000Y4536667D01*
X24745699Y4118271D01*
X24822587Y3923500D01*
X24919000Y3923500D01*
X24919000Y3823500D01*
X24822587Y3823500D01*
X24745699Y3628729D01*
X24919000Y3210333D01*
X24919000Y2473946D01*
X24866280Y2438720D01*
X24788040Y2321624D01*
X24760565Y2183500D01*
X24760565Y1958342D01*
X24696060Y1861804D01*
X24590974Y1333500D01*
X24696060Y805196D01*
X24760565Y708658D01*
X24760565Y483500D01*
X24771406Y429000D01*
X17181500Y429000D01*
X17181500Y3622589D01*
X19920000Y3622589D01*
X19920000Y3362411D01*
X20019565Y3122039D01*
X20203539Y2938065D01*
X20443911Y2838500D01*
X20704089Y2838500D01*
X20944461Y2938065D01*
X21128435Y3122039D01*
X21228000Y3362411D01*
X21228000Y3433737D01*
X22284987Y4490724D01*
X22353432Y4462373D01*
X22613610Y4462373D01*
X22853982Y4561938D01*
X23037956Y4745912D01*
X23137521Y4986284D01*
X23137521Y5246462D01*
X23037956Y5486834D01*
X22853982Y5670808D01*
X22613610Y5770373D01*
X22353432Y5770373D01*
X22113060Y5670808D01*
X22041367Y5599115D01*
X22001222Y5591130D01*
X21834510Y5479736D01*
X21806393Y5437656D01*
X20515237Y4146500D01*
X20443911Y4146500D01*
X20203539Y4046935D01*
X20019565Y3862961D01*
X19920000Y3622589D01*
X17181500Y3622589D01*
X17181500Y9909089D01*
X18904000Y9909089D01*
X18904000Y9648911D01*
X19003565Y9408539D01*
X19187539Y9224565D01*
X19427911Y9125000D01*
X19688089Y9125000D01*
X19928461Y9224565D01*
X19978896Y9275000D01*
X20476249Y9275000D01*
X21888500Y7862748D01*
X21888500Y7791423D01*
X21988065Y7551051D01*
X22038500Y7500616D01*
X22038501Y7208338D01*
X21918039Y7158441D01*
X21734065Y6974467D01*
X21634500Y6734095D01*
X21634500Y6473917D01*
X21734065Y6233545D01*
X21918039Y6049571D01*
X22158411Y5950006D01*
X22418589Y5950006D01*
X22658961Y6049571D01*
X22842935Y6233545D01*
X22942500Y6473917D01*
X22942500Y6549474D01*
X23017257Y6661355D01*
X23046500Y6808371D01*
X23046500Y6808375D01*
X23056372Y6858005D01*
X23046500Y6907635D01*
X23046500Y7500616D01*
X23096935Y7551051D01*
X23196500Y7791423D01*
X23196500Y8051601D01*
X23096935Y8291973D01*
X22912961Y8475947D01*
X22672589Y8575512D01*
X22601264Y8575512D01*
X21443187Y9733589D01*
X22587000Y9733589D01*
X22587000Y9473411D01*
X22686565Y9233039D01*
X22870539Y9049065D01*
X23110911Y8949500D01*
X23182236Y8949500D01*
X23308500Y8823236D01*
X23308501Y6770903D01*
X23131065Y6593467D01*
X23031500Y6353095D01*
X23031500Y6092917D01*
X23131065Y5852545D01*
X23315039Y5668571D01*
X23555411Y5569006D01*
X23815589Y5569006D01*
X24055961Y5668571D01*
X24239935Y5852545D01*
X24339500Y6092917D01*
X24339500Y6353095D01*
X24305448Y6435303D01*
X24316500Y6490865D01*
X24316500Y6490868D01*
X24326372Y6540499D01*
X24316500Y6590131D01*
X24316500Y8982369D01*
X24326372Y9032001D01*
X24316500Y9081634D01*
X24316500Y9081635D01*
X24287257Y9228651D01*
X24284325Y9233039D01*
X24203979Y9353285D01*
X24203978Y9353286D01*
X24175863Y9395363D01*
X24133786Y9423478D01*
X23895000Y9662264D01*
X23895000Y9733589D01*
X23795435Y9973961D01*
X23611461Y10157935D01*
X23371089Y10257500D01*
X23110911Y10257500D01*
X22870539Y10157935D01*
X22686565Y9973961D01*
X22587000Y9733589D01*
X21443187Y9733589D01*
X21076492Y10100283D01*
X21048375Y10142363D01*
X20881663Y10253757D01*
X20734647Y10283000D01*
X20734643Y10283000D01*
X20685012Y10292872D01*
X20635381Y10283000D01*
X19978896Y10283000D01*
X19928461Y10333435D01*
X19688089Y10433000D01*
X19427911Y10433000D01*
X19187539Y10333435D01*
X19003565Y10149461D01*
X18904000Y9909089D01*
X17181500Y9909089D01*
X17181500Y12398000D01*
X24919000Y12398000D01*
X24919000Y12355456D01*
X24919000Y12355456D01*
G37*
X24919000Y12355456D02*
X24696060Y12021804D01*
X24590974Y11493500D01*
X24696060Y10965196D01*
X24919000Y10631543D01*
X24919000Y9815457D01*
X24696060Y9481804D01*
X24590974Y8953500D01*
X24696060Y8425196D01*
X24919000Y8091543D01*
X24919000Y7275457D01*
X24696060Y6941804D01*
X24590974Y6413500D01*
X24696060Y5885196D01*
X24919000Y5551543D01*
X24919000Y4536667D01*
X24745699Y4118271D01*
X24822587Y3923500D01*
X24919000Y3923500D01*
X24919000Y3823500D01*
X24822587Y3823500D01*
X24745699Y3628729D01*
X24919000Y3210333D01*
X24919000Y2473946D01*
X24866280Y2438720D01*
X24788040Y2321624D01*
X24760565Y2183500D01*
X24760565Y1958342D01*
X24696060Y1861804D01*
X24590974Y1333500D01*
X24696060Y805196D01*
X24760565Y708658D01*
X24760565Y483500D01*
X24771406Y429000D01*
X17181500Y429000D01*
X17181500Y3622589D01*
X19920000Y3622589D01*
X19920000Y3362411D01*
X20019565Y3122039D01*
X20203539Y2938065D01*
X20443911Y2838500D01*
X20704089Y2838500D01*
X20944461Y2938065D01*
X21128435Y3122039D01*
X21228000Y3362411D01*
X21228000Y3433737D01*
X22284987Y4490724D01*
X22353432Y4462373D01*
X22613610Y4462373D01*
X22853982Y4561938D01*
X23037956Y4745912D01*
X23137521Y4986284D01*
X23137521Y5246462D01*
X23037956Y5486834D01*
X22853982Y5670808D01*
X22613610Y5770373D01*
X22353432Y5770373D01*
X22113060Y5670808D01*
X22041367Y5599115D01*
X22001222Y5591130D01*
X21834510Y5479736D01*
X21806393Y5437656D01*
X20515237Y4146500D01*
X20443911Y4146500D01*
X20203539Y4046935D01*
X20019565Y3862961D01*
X19920000Y3622589D01*
X17181500Y3622589D01*
X17181500Y9909089D01*
X18904000Y9909089D01*
X18904000Y9648911D01*
X19003565Y9408539D01*
X19187539Y9224565D01*
X19427911Y9125000D01*
X19688089Y9125000D01*
X19928461Y9224565D01*
X19978896Y9275000D01*
X20476249Y9275000D01*
X21888500Y7862748D01*
X21888500Y7791423D01*
X21988065Y7551051D01*
X22038500Y7500616D01*
X22038501Y7208338D01*
X21918039Y7158441D01*
X21734065Y6974467D01*
X21634500Y6734095D01*
X21634500Y6473917D01*
X21734065Y6233545D01*
X21918039Y6049571D01*
X22158411Y5950006D01*
X22418589Y5950006D01*
X22658961Y6049571D01*
X22842935Y6233545D01*
X22942500Y6473917D01*
X22942500Y6549474D01*
X23017257Y6661355D01*
X23046500Y6808371D01*
X23046500Y6808375D01*
X23056372Y6858005D01*
X23046500Y6907635D01*
X23046500Y7500616D01*
X23096935Y7551051D01*
X23196500Y7791423D01*
X23196500Y8051601D01*
X23096935Y8291973D01*
X22912961Y8475947D01*
X22672589Y8575512D01*
X22601264Y8575512D01*
X21443187Y9733589D01*
X22587000Y9733589D01*
X22587000Y9473411D01*
X22686565Y9233039D01*
X22870539Y9049065D01*
X23110911Y8949500D01*
X23182236Y8949500D01*
X23308500Y8823236D01*
X23308501Y6770903D01*
X23131065Y6593467D01*
X23031500Y6353095D01*
X23031500Y6092917D01*
X23131065Y5852545D01*
X23315039Y5668571D01*
X23555411Y5569006D01*
X23815589Y5569006D01*
X24055961Y5668571D01*
X24239935Y5852545D01*
X24339500Y6092917D01*
X24339500Y6353095D01*
X24305448Y6435303D01*
X24316500Y6490865D01*
X24316500Y6490868D01*
X24326372Y6540499D01*
X24316500Y6590131D01*
X24316500Y8982369D01*
X24326372Y9032001D01*
X24316500Y9081634D01*
X24316500Y9081635D01*
X24287257Y9228651D01*
X24284325Y9233039D01*
X24203979Y9353285D01*
X24203978Y9353286D01*
X24175863Y9395363D01*
X24133786Y9423478D01*
X23895000Y9662264D01*
X23895000Y9733589D01*
X23795435Y9973961D01*
X23611461Y10157935D01*
X23371089Y10257500D01*
X23110911Y10257500D01*
X22870539Y10157935D01*
X22686565Y9973961D01*
X22587000Y9733589D01*
X21443187Y9733589D01*
X21076492Y10100283D01*
X21048375Y10142363D01*
X20881663Y10253757D01*
X20734647Y10283000D01*
X20734643Y10283000D01*
X20685012Y10292872D01*
X20635381Y10283000D01*
X19978896Y10283000D01*
X19928461Y10333435D01*
X19688089Y10433000D01*
X19427911Y10433000D01*
X19187539Y10333435D01*
X19003565Y10149461D01*
X18904000Y9909089D01*
X17181500Y9909089D01*
X17181500Y12398000D01*
X24919000Y12398000D01*
X24919000Y12355456D01*
G04 #@! TD*
M02*
