G04 #@! TF.GenerationSoftware,KiCad,Pcbnew,5.0.2-bee76a0~70~ubuntu18.04.1*
G04 #@! TF.CreationDate,2019-07-29T11:10:54+02:00*
G04 #@! TF.ProjectId,SWD_Isolator,5357445f-4973-46f6-9c61-746f722e6b69,rev?*
G04 #@! TF.SameCoordinates,PX4148288PY2f7a4c0*
G04 #@! TF.FileFunction,Soldermask,Top*
G04 #@! TF.FilePolarity,Negative*
%FSLAX46Y46*%
G04 Gerber Fmt 4.6, Leading zero omitted, Abs format (unit mm)*
G04 Created by KiCad (PCBNEW 5.0.2-bee76a0~70~ubuntu18.04.1) date pon 29 jul 2019 11:10:54 CEST*
%MOMM*%
%LPD*%
G01*
G04 APERTURE LIST*
%ADD10C,0.100000*%
G04 APERTURE END LIST*
D10*
G36*
X30035500Y127000D02*
X24955500Y127000D01*
X24955500Y12700000D01*
X30035500Y12700000D01*
X30035500Y127000D01*
X30035500Y127000D01*
G37*
G36*
X5143500Y127000D02*
X63500Y127000D01*
X63500Y12700000D01*
X5143500Y12700000D01*
X5143500Y127000D01*
X5143500Y127000D01*
G37*
G36*
X21736499Y1410555D02*
X21773993Y1399181D01*
X21808557Y1380706D01*
X21838847Y1355847D01*
X21863706Y1325557D01*
X21882181Y1290993D01*
X21893555Y1253499D01*
X21898000Y1208362D01*
X21898000Y569638D01*
X21893555Y524501D01*
X21882181Y487007D01*
X21863706Y452443D01*
X21838847Y422153D01*
X21808557Y397294D01*
X21773993Y378819D01*
X21736499Y367445D01*
X21691362Y363000D01*
X20952638Y363000D01*
X20907501Y367445D01*
X20870007Y378819D01*
X20835443Y397294D01*
X20805153Y422153D01*
X20780294Y452443D01*
X20761819Y487007D01*
X20750445Y524501D01*
X20746000Y569638D01*
X20746000Y1208362D01*
X20750445Y1253499D01*
X20761819Y1290993D01*
X20780294Y1325557D01*
X20805153Y1355847D01*
X20835443Y1380706D01*
X20870007Y1399181D01*
X20907501Y1410555D01*
X20952638Y1415000D01*
X21691362Y1415000D01*
X21736499Y1410555D01*
X21736499Y1410555D01*
G37*
G36*
X19986499Y1410555D02*
X20023993Y1399181D01*
X20058557Y1380706D01*
X20088847Y1355847D01*
X20113706Y1325557D01*
X20132181Y1290993D01*
X20143555Y1253499D01*
X20148000Y1208362D01*
X20148000Y569638D01*
X20143555Y524501D01*
X20132181Y487007D01*
X20113706Y452443D01*
X20088847Y422153D01*
X20058557Y397294D01*
X20023993Y378819D01*
X19986499Y367445D01*
X19941362Y363000D01*
X19202638Y363000D01*
X19157501Y367445D01*
X19120007Y378819D01*
X19085443Y397294D01*
X19055153Y422153D01*
X19030294Y452443D01*
X19011819Y487007D01*
X19000445Y524501D01*
X18996000Y569638D01*
X18996000Y1208362D01*
X19000445Y1253499D01*
X19011819Y1290993D01*
X19030294Y1325557D01*
X19055153Y1355847D01*
X19085443Y1380706D01*
X19120007Y1399181D01*
X19157501Y1410555D01*
X19202638Y1415000D01*
X19941362Y1415000D01*
X19986499Y1410555D01*
X19986499Y1410555D01*
G37*
G36*
X9177499Y1410555D02*
X9214993Y1399181D01*
X9249557Y1380706D01*
X9279847Y1355847D01*
X9304706Y1325557D01*
X9323181Y1290993D01*
X9334555Y1253499D01*
X9339000Y1208362D01*
X9339000Y569638D01*
X9334555Y524501D01*
X9323181Y487007D01*
X9304706Y452443D01*
X9279847Y422153D01*
X9249557Y397294D01*
X9214993Y378819D01*
X9177499Y367445D01*
X9132362Y363000D01*
X8393638Y363000D01*
X8348501Y367445D01*
X8311007Y378819D01*
X8276443Y397294D01*
X8246153Y422153D01*
X8221294Y452443D01*
X8202819Y487007D01*
X8191445Y524501D01*
X8187000Y569638D01*
X8187000Y1208362D01*
X8191445Y1253499D01*
X8202819Y1290993D01*
X8221294Y1325557D01*
X8246153Y1355847D01*
X8276443Y1380706D01*
X8311007Y1399181D01*
X8348501Y1410555D01*
X8393638Y1415000D01*
X9132362Y1415000D01*
X9177499Y1410555D01*
X9177499Y1410555D01*
G37*
G36*
X10927499Y1410555D02*
X10964993Y1399181D01*
X10999557Y1380706D01*
X11029847Y1355847D01*
X11054706Y1325557D01*
X11073181Y1290993D01*
X11084555Y1253499D01*
X11089000Y1208362D01*
X11089000Y569638D01*
X11084555Y524501D01*
X11073181Y487007D01*
X11054706Y452443D01*
X11029847Y422153D01*
X10999557Y397294D01*
X10964993Y378819D01*
X10927499Y367445D01*
X10882362Y363000D01*
X10143638Y363000D01*
X10098501Y367445D01*
X10061007Y378819D01*
X10026443Y397294D01*
X9996153Y422153D01*
X9971294Y452443D01*
X9952819Y487007D01*
X9941445Y524501D01*
X9937000Y569638D01*
X9937000Y1208362D01*
X9941445Y1253499D01*
X9952819Y1290993D01*
X9971294Y1325557D01*
X9996153Y1355847D01*
X10026443Y1380706D01*
X10061007Y1399181D01*
X10098501Y1410555D01*
X10143638Y1415000D01*
X10882362Y1415000D01*
X10927499Y1410555D01*
X10927499Y1410555D01*
G37*
G36*
X23702677Y1946035D02*
X23740364Y1934602D01*
X23775103Y1916034D01*
X23805548Y1891048D01*
X23830534Y1860603D01*
X23849102Y1825864D01*
X23860535Y1788177D01*
X23865000Y1742839D01*
X23865000Y906161D01*
X23860535Y860823D01*
X23849102Y823136D01*
X23830534Y788397D01*
X23805548Y757952D01*
X23775103Y732966D01*
X23740364Y714398D01*
X23702677Y702965D01*
X23657339Y698500D01*
X22570661Y698500D01*
X22525323Y702965D01*
X22487636Y714398D01*
X22452897Y732966D01*
X22422452Y757952D01*
X22397466Y788397D01*
X22378898Y823136D01*
X22367465Y860823D01*
X22363000Y906161D01*
X22363000Y1742839D01*
X22367465Y1788177D01*
X22378898Y1825864D01*
X22397466Y1860603D01*
X22422452Y1891048D01*
X22452897Y1916034D01*
X22487636Y1934602D01*
X22525323Y1946035D01*
X22570661Y1950500D01*
X23657339Y1950500D01*
X23702677Y1946035D01*
X23702677Y1946035D01*
G37*
G36*
X7637177Y2009535D02*
X7674864Y1998102D01*
X7709603Y1979534D01*
X7740048Y1954548D01*
X7765034Y1924103D01*
X7783602Y1889364D01*
X7795035Y1851677D01*
X7799500Y1806339D01*
X7799500Y969661D01*
X7795035Y924323D01*
X7783602Y886636D01*
X7765034Y851897D01*
X7740048Y821452D01*
X7709603Y796466D01*
X7674864Y777898D01*
X7637177Y766465D01*
X7591839Y762000D01*
X6505161Y762000D01*
X6459823Y766465D01*
X6422136Y777898D01*
X6387397Y796466D01*
X6356952Y821452D01*
X6331966Y851897D01*
X6313398Y886636D01*
X6301965Y924323D01*
X6297500Y969661D01*
X6297500Y1806339D01*
X6301965Y1851677D01*
X6313398Y1889364D01*
X6331966Y1924103D01*
X6356952Y1954548D01*
X6387397Y1979534D01*
X6422136Y1998102D01*
X6459823Y2009535D01*
X6505161Y2014000D01*
X7591839Y2014000D01*
X7637177Y2009535D01*
X7637177Y2009535D01*
G37*
G36*
X18550500Y1617500D02*
X16948500Y1617500D01*
X16948500Y2319500D01*
X18550500Y2319500D01*
X18550500Y1617500D01*
X18550500Y1617500D01*
G37*
G36*
X13150500Y1617500D02*
X11548500Y1617500D01*
X11548500Y2319500D01*
X13150500Y2319500D01*
X13150500Y1617500D01*
X13150500Y1617500D01*
G37*
G36*
X19972499Y2871055D02*
X20009993Y2859681D01*
X20044557Y2841206D01*
X20074847Y2816347D01*
X20099706Y2786057D01*
X20118181Y2751493D01*
X20129555Y2713999D01*
X20134000Y2668862D01*
X20134000Y2030138D01*
X20129555Y1985001D01*
X20118181Y1947507D01*
X20099706Y1912943D01*
X20074847Y1882653D01*
X20044557Y1857794D01*
X20009993Y1839319D01*
X19972499Y1827945D01*
X19927362Y1823500D01*
X19188638Y1823500D01*
X19143501Y1827945D01*
X19106007Y1839319D01*
X19071443Y1857794D01*
X19041153Y1882653D01*
X19016294Y1912943D01*
X18997819Y1947507D01*
X18986445Y1985001D01*
X18982000Y2030138D01*
X18982000Y2668862D01*
X18986445Y2713999D01*
X18997819Y2751493D01*
X19016294Y2786057D01*
X19041153Y2816347D01*
X19071443Y2841206D01*
X19106007Y2859681D01*
X19143501Y2871055D01*
X19188638Y2875500D01*
X19927362Y2875500D01*
X19972499Y2871055D01*
X19972499Y2871055D01*
G37*
G36*
X21722499Y2871055D02*
X21759993Y2859681D01*
X21794557Y2841206D01*
X21824847Y2816347D01*
X21849706Y2786057D01*
X21868181Y2751493D01*
X21879555Y2713999D01*
X21884000Y2668862D01*
X21884000Y2030138D01*
X21879555Y1985001D01*
X21868181Y1947507D01*
X21849706Y1912943D01*
X21824847Y1882653D01*
X21794557Y1857794D01*
X21759993Y1839319D01*
X21722499Y1827945D01*
X21677362Y1823500D01*
X20938638Y1823500D01*
X20893501Y1827945D01*
X20856007Y1839319D01*
X20821443Y1857794D01*
X20791153Y1882653D01*
X20766294Y1912943D01*
X20747819Y1947507D01*
X20736445Y1985001D01*
X20732000Y2030138D01*
X20732000Y2668862D01*
X20736445Y2713999D01*
X20747819Y2751493D01*
X20766294Y2786057D01*
X20791153Y2816347D01*
X20821443Y2841206D01*
X20856007Y2859681D01*
X20893501Y2871055D01*
X20938638Y2875500D01*
X21677362Y2875500D01*
X21722499Y2871055D01*
X21722499Y2871055D01*
G37*
G36*
X10955499Y2934555D02*
X10992993Y2923181D01*
X11027557Y2904706D01*
X11057847Y2879847D01*
X11082706Y2849557D01*
X11101181Y2814993D01*
X11112555Y2777499D01*
X11117000Y2732362D01*
X11117000Y2093638D01*
X11112555Y2048501D01*
X11101181Y2011007D01*
X11082706Y1976443D01*
X11057847Y1946153D01*
X11027557Y1921294D01*
X10992993Y1902819D01*
X10955499Y1891445D01*
X10910362Y1887000D01*
X10171638Y1887000D01*
X10126501Y1891445D01*
X10089007Y1902819D01*
X10054443Y1921294D01*
X10024153Y1946153D01*
X9999294Y1976443D01*
X9980819Y2011007D01*
X9969445Y2048501D01*
X9965000Y2093638D01*
X9965000Y2732362D01*
X9969445Y2777499D01*
X9980819Y2814993D01*
X9999294Y2849557D01*
X10024153Y2879847D01*
X10054443Y2904706D01*
X10089007Y2923181D01*
X10126501Y2934555D01*
X10171638Y2939000D01*
X10910362Y2939000D01*
X10955499Y2934555D01*
X10955499Y2934555D01*
G37*
G36*
X9205499Y2934555D02*
X9242993Y2923181D01*
X9277557Y2904706D01*
X9307847Y2879847D01*
X9332706Y2849557D01*
X9351181Y2814993D01*
X9362555Y2777499D01*
X9367000Y2732362D01*
X9367000Y2093638D01*
X9362555Y2048501D01*
X9351181Y2011007D01*
X9332706Y1976443D01*
X9307847Y1946153D01*
X9277557Y1921294D01*
X9242993Y1902819D01*
X9205499Y1891445D01*
X9160362Y1887000D01*
X8421638Y1887000D01*
X8376501Y1891445D01*
X8339007Y1902819D01*
X8304443Y1921294D01*
X8274153Y1946153D01*
X8249294Y1976443D01*
X8230819Y2011007D01*
X8219445Y2048501D01*
X8215000Y2093638D01*
X8215000Y2732362D01*
X8219445Y2777499D01*
X8230819Y2814993D01*
X8249294Y2849557D01*
X8274153Y2879847D01*
X8304443Y2904706D01*
X8339007Y2923181D01*
X8376501Y2934555D01*
X8421638Y2939000D01*
X9160362Y2939000D01*
X9205499Y2934555D01*
X9205499Y2934555D01*
G37*
G36*
X23702677Y3996035D02*
X23740364Y3984602D01*
X23775103Y3966034D01*
X23805548Y3941048D01*
X23830534Y3910603D01*
X23849102Y3875864D01*
X23860535Y3838177D01*
X23865000Y3792839D01*
X23865000Y2956161D01*
X23860535Y2910823D01*
X23849102Y2873136D01*
X23830534Y2838397D01*
X23805548Y2807952D01*
X23775103Y2782966D01*
X23740364Y2764398D01*
X23702677Y2752965D01*
X23657339Y2748500D01*
X22570661Y2748500D01*
X22525323Y2752965D01*
X22487636Y2764398D01*
X22452897Y2782966D01*
X22422452Y2807952D01*
X22397466Y2838397D01*
X22378898Y2873136D01*
X22367465Y2910823D01*
X22363000Y2956161D01*
X22363000Y3792839D01*
X22367465Y3838177D01*
X22378898Y3875864D01*
X22397466Y3910603D01*
X22422452Y3941048D01*
X22452897Y3966034D01*
X22487636Y3984602D01*
X22525323Y3996035D01*
X22570661Y4000500D01*
X23657339Y4000500D01*
X23702677Y3996035D01*
X23702677Y3996035D01*
G37*
G36*
X7637177Y4059535D02*
X7674864Y4048102D01*
X7709603Y4029534D01*
X7740048Y4004548D01*
X7765034Y3974103D01*
X7783602Y3939364D01*
X7795035Y3901677D01*
X7799500Y3856339D01*
X7799500Y3019661D01*
X7795035Y2974323D01*
X7783602Y2936636D01*
X7765034Y2901897D01*
X7740048Y2871452D01*
X7709603Y2846466D01*
X7674864Y2827898D01*
X7637177Y2816465D01*
X7591839Y2812000D01*
X6505161Y2812000D01*
X6459823Y2816465D01*
X6422136Y2827898D01*
X6387397Y2846466D01*
X6356952Y2871452D01*
X6331966Y2901897D01*
X6313398Y2936636D01*
X6301965Y2974323D01*
X6297500Y3019661D01*
X6297500Y3856339D01*
X6301965Y3901677D01*
X6313398Y3939364D01*
X6331966Y3974103D01*
X6356952Y4004548D01*
X6387397Y4029534D01*
X6422136Y4048102D01*
X6459823Y4059535D01*
X6505161Y4064000D01*
X7591839Y4064000D01*
X7637177Y4059535D01*
X7637177Y4059535D01*
G37*
G36*
X18550500Y2887500D02*
X16948500Y2887500D01*
X16948500Y3589500D01*
X18550500Y3589500D01*
X18550500Y2887500D01*
X18550500Y2887500D01*
G37*
G36*
X13150500Y2887500D02*
X11548500Y2887500D01*
X11548500Y3589500D01*
X13150500Y3589500D01*
X13150500Y2887500D01*
X13150500Y2887500D01*
G37*
G36*
X21926999Y4776055D02*
X21964493Y4764681D01*
X21999057Y4746206D01*
X22029347Y4721347D01*
X22054206Y4691057D01*
X22072681Y4656493D01*
X22084055Y4618999D01*
X22088500Y4573862D01*
X22088500Y3935138D01*
X22084055Y3890001D01*
X22072681Y3852507D01*
X22054206Y3817943D01*
X22029347Y3787653D01*
X21999057Y3762794D01*
X21964493Y3744319D01*
X21926999Y3732945D01*
X21881862Y3728500D01*
X21143138Y3728500D01*
X21098001Y3732945D01*
X21060507Y3744319D01*
X21025943Y3762794D01*
X20995653Y3787653D01*
X20970794Y3817943D01*
X20952319Y3852507D01*
X20940945Y3890001D01*
X20936500Y3935138D01*
X20936500Y4573862D01*
X20940945Y4618999D01*
X20952319Y4656493D01*
X20970794Y4691057D01*
X20995653Y4721347D01*
X21025943Y4746206D01*
X21060507Y4764681D01*
X21098001Y4776055D01*
X21143138Y4780500D01*
X21881862Y4780500D01*
X21926999Y4776055D01*
X21926999Y4776055D01*
G37*
G36*
X20176999Y4776055D02*
X20214493Y4764681D01*
X20249057Y4746206D01*
X20279347Y4721347D01*
X20304206Y4691057D01*
X20322681Y4656493D01*
X20334055Y4618999D01*
X20338500Y4573862D01*
X20338500Y3935138D01*
X20334055Y3890001D01*
X20322681Y3852507D01*
X20304206Y3817943D01*
X20279347Y3787653D01*
X20249057Y3762794D01*
X20214493Y3744319D01*
X20176999Y3732945D01*
X20131862Y3728500D01*
X19393138Y3728500D01*
X19348001Y3732945D01*
X19310507Y3744319D01*
X19275943Y3762794D01*
X19245653Y3787653D01*
X19220794Y3817943D01*
X19202319Y3852507D01*
X19190945Y3890001D01*
X19186500Y3935138D01*
X19186500Y4573862D01*
X19190945Y4618999D01*
X19202319Y4656493D01*
X19220794Y4691057D01*
X19245653Y4721347D01*
X19275943Y4746206D01*
X19310507Y4764681D01*
X19348001Y4776055D01*
X19393138Y4780500D01*
X20131862Y4780500D01*
X20176999Y4776055D01*
X20176999Y4776055D01*
G37*
G36*
X9064499Y5030055D02*
X9101993Y5018681D01*
X9136557Y5000206D01*
X9166847Y4975347D01*
X9191706Y4945057D01*
X9210181Y4910493D01*
X9221555Y4872999D01*
X9226000Y4827862D01*
X9226000Y4189138D01*
X9221555Y4144001D01*
X9210181Y4106507D01*
X9191706Y4071943D01*
X9166847Y4041653D01*
X9136557Y4016794D01*
X9101993Y3998319D01*
X9064499Y3986945D01*
X9019362Y3982500D01*
X8280638Y3982500D01*
X8235501Y3986945D01*
X8198007Y3998319D01*
X8163443Y4016794D01*
X8133153Y4041653D01*
X8108294Y4071943D01*
X8089819Y4106507D01*
X8078445Y4144001D01*
X8074000Y4189138D01*
X8074000Y4827862D01*
X8078445Y4872999D01*
X8089819Y4910493D01*
X8108294Y4945057D01*
X8133153Y4975347D01*
X8163443Y5000206D01*
X8198007Y5018681D01*
X8235501Y5030055D01*
X8280638Y5034500D01*
X9019362Y5034500D01*
X9064499Y5030055D01*
X9064499Y5030055D01*
G37*
G36*
X10814499Y5030055D02*
X10851993Y5018681D01*
X10886557Y5000206D01*
X10916847Y4975347D01*
X10941706Y4945057D01*
X10960181Y4910493D01*
X10971555Y4872999D01*
X10976000Y4827862D01*
X10976000Y4189138D01*
X10971555Y4144001D01*
X10960181Y4106507D01*
X10941706Y4071943D01*
X10916847Y4041653D01*
X10886557Y4016794D01*
X10851993Y3998319D01*
X10814499Y3986945D01*
X10769362Y3982500D01*
X10030638Y3982500D01*
X9985501Y3986945D01*
X9948007Y3998319D01*
X9913443Y4016794D01*
X9883153Y4041653D01*
X9858294Y4071943D01*
X9839819Y4106507D01*
X9828445Y4144001D01*
X9824000Y4189138D01*
X9824000Y4827862D01*
X9828445Y4872999D01*
X9839819Y4910493D01*
X9858294Y4945057D01*
X9883153Y4975347D01*
X9913443Y5000206D01*
X9948007Y5018681D01*
X9985501Y5030055D01*
X10030638Y5034500D01*
X10769362Y5034500D01*
X10814499Y5030055D01*
X10814499Y5030055D01*
G37*
G36*
X18550500Y4157500D02*
X16948500Y4157500D01*
X16948500Y4859500D01*
X18550500Y4859500D01*
X18550500Y4157500D01*
X18550500Y4157500D01*
G37*
G36*
X13150500Y4157500D02*
X11548500Y4157500D01*
X11548500Y4859500D01*
X13150500Y4859500D01*
X13150500Y4157500D01*
X13150500Y4157500D01*
G37*
G36*
X21926999Y6300055D02*
X21964493Y6288681D01*
X21999057Y6270206D01*
X22029347Y6245347D01*
X22054206Y6215057D01*
X22072681Y6180493D01*
X22084055Y6142999D01*
X22088500Y6097862D01*
X22088500Y5459138D01*
X22084055Y5414001D01*
X22072681Y5376507D01*
X22054206Y5341943D01*
X22029347Y5311653D01*
X21999057Y5286794D01*
X21964493Y5268319D01*
X21926999Y5256945D01*
X21881862Y5252500D01*
X21143138Y5252500D01*
X21098001Y5256945D01*
X21060507Y5268319D01*
X21025943Y5286794D01*
X20995653Y5311653D01*
X20970794Y5341943D01*
X20952319Y5376507D01*
X20940945Y5414001D01*
X20936500Y5459138D01*
X20936500Y6097862D01*
X20940945Y6142999D01*
X20952319Y6180493D01*
X20970794Y6215057D01*
X20995653Y6245347D01*
X21025943Y6270206D01*
X21060507Y6288681D01*
X21098001Y6300055D01*
X21143138Y6304500D01*
X21881862Y6304500D01*
X21926999Y6300055D01*
X21926999Y6300055D01*
G37*
G36*
X20176999Y6300055D02*
X20214493Y6288681D01*
X20249057Y6270206D01*
X20279347Y6245347D01*
X20304206Y6215057D01*
X20322681Y6180493D01*
X20334055Y6142999D01*
X20338500Y6097862D01*
X20338500Y5459138D01*
X20334055Y5414001D01*
X20322681Y5376507D01*
X20304206Y5341943D01*
X20279347Y5311653D01*
X20249057Y5286794D01*
X20214493Y5268319D01*
X20176999Y5256945D01*
X20131862Y5252500D01*
X19393138Y5252500D01*
X19348001Y5256945D01*
X19310507Y5268319D01*
X19275943Y5286794D01*
X19245653Y5311653D01*
X19220794Y5341943D01*
X19202319Y5376507D01*
X19190945Y5414001D01*
X19186500Y5459138D01*
X19186500Y6097862D01*
X19190945Y6142999D01*
X19202319Y6180493D01*
X19220794Y6215057D01*
X19245653Y6245347D01*
X19275943Y6270206D01*
X19310507Y6288681D01*
X19348001Y6300055D01*
X19393138Y6304500D01*
X20131862Y6304500D01*
X20176999Y6300055D01*
X20176999Y6300055D01*
G37*
G36*
X18550500Y5427500D02*
X16948500Y5427500D01*
X16948500Y6129500D01*
X18550500Y6129500D01*
X18550500Y5427500D01*
X18550500Y5427500D01*
G37*
G36*
X13150500Y5427500D02*
X11548500Y5427500D01*
X11548500Y6129500D01*
X13150500Y6129500D01*
X13150500Y5427500D01*
X13150500Y5427500D01*
G37*
G36*
X9064499Y7570055D02*
X9101993Y7558681D01*
X9136557Y7540206D01*
X9166847Y7515347D01*
X9191706Y7485057D01*
X9210181Y7450493D01*
X9221555Y7412999D01*
X9226000Y7367862D01*
X9226000Y6729138D01*
X9221555Y6684001D01*
X9210181Y6646507D01*
X9191706Y6611943D01*
X9166847Y6581653D01*
X9136557Y6556794D01*
X9101993Y6538319D01*
X9064499Y6526945D01*
X9019362Y6522500D01*
X8280638Y6522500D01*
X8235501Y6526945D01*
X8198007Y6538319D01*
X8163443Y6556794D01*
X8133153Y6581653D01*
X8108294Y6611943D01*
X8089819Y6646507D01*
X8078445Y6684001D01*
X8074000Y6729138D01*
X8074000Y7367862D01*
X8078445Y7412999D01*
X8089819Y7450493D01*
X8108294Y7485057D01*
X8133153Y7515347D01*
X8163443Y7540206D01*
X8198007Y7558681D01*
X8235501Y7570055D01*
X8280638Y7574500D01*
X9019362Y7574500D01*
X9064499Y7570055D01*
X9064499Y7570055D01*
G37*
G36*
X10814499Y7570055D02*
X10851993Y7558681D01*
X10886557Y7540206D01*
X10916847Y7515347D01*
X10941706Y7485057D01*
X10960181Y7450493D01*
X10971555Y7412999D01*
X10976000Y7367862D01*
X10976000Y6729138D01*
X10971555Y6684001D01*
X10960181Y6646507D01*
X10941706Y6611943D01*
X10916847Y6581653D01*
X10886557Y6556794D01*
X10851993Y6538319D01*
X10814499Y6526945D01*
X10769362Y6522500D01*
X10030638Y6522500D01*
X9985501Y6526945D01*
X9948007Y6538319D01*
X9913443Y6556794D01*
X9883153Y6581653D01*
X9858294Y6611943D01*
X9839819Y6646507D01*
X9828445Y6684001D01*
X9824000Y6729138D01*
X9824000Y7367862D01*
X9828445Y7412999D01*
X9839819Y7450493D01*
X9858294Y7485057D01*
X9883153Y7515347D01*
X9913443Y7540206D01*
X9948007Y7558681D01*
X9985501Y7570055D01*
X10030638Y7574500D01*
X10769362Y7574500D01*
X10814499Y7570055D01*
X10814499Y7570055D01*
G37*
G36*
X18550500Y6697500D02*
X16948500Y6697500D01*
X16948500Y7399500D01*
X18550500Y7399500D01*
X18550500Y6697500D01*
X18550500Y6697500D01*
G37*
G36*
X13150500Y6697500D02*
X11548500Y6697500D01*
X11548500Y7399500D01*
X13150500Y7399500D01*
X13150500Y6697500D01*
X13150500Y6697500D01*
G37*
G36*
X21926999Y8840055D02*
X21964493Y8828681D01*
X21999057Y8810206D01*
X22029347Y8785347D01*
X22054206Y8755057D01*
X22072681Y8720493D01*
X22084055Y8682999D01*
X22088500Y8637862D01*
X22088500Y7999138D01*
X22084055Y7954001D01*
X22072681Y7916507D01*
X22054206Y7881943D01*
X22029347Y7851653D01*
X21999057Y7826794D01*
X21964493Y7808319D01*
X21926999Y7796945D01*
X21881862Y7792500D01*
X21143138Y7792500D01*
X21098001Y7796945D01*
X21060507Y7808319D01*
X21025943Y7826794D01*
X20995653Y7851653D01*
X20970794Y7881943D01*
X20952319Y7916507D01*
X20940945Y7954001D01*
X20936500Y7999138D01*
X20936500Y8637862D01*
X20940945Y8682999D01*
X20952319Y8720493D01*
X20970794Y8755057D01*
X20995653Y8785347D01*
X21025943Y8810206D01*
X21060507Y8828681D01*
X21098001Y8840055D01*
X21143138Y8844500D01*
X21881862Y8844500D01*
X21926999Y8840055D01*
X21926999Y8840055D01*
G37*
G36*
X20176999Y8840055D02*
X20214493Y8828681D01*
X20249057Y8810206D01*
X20279347Y8785347D01*
X20304206Y8755057D01*
X20322681Y8720493D01*
X20334055Y8682999D01*
X20338500Y8637862D01*
X20338500Y7999138D01*
X20334055Y7954001D01*
X20322681Y7916507D01*
X20304206Y7881943D01*
X20279347Y7851653D01*
X20249057Y7826794D01*
X20214493Y7808319D01*
X20176999Y7796945D01*
X20131862Y7792500D01*
X19393138Y7792500D01*
X19348001Y7796945D01*
X19310507Y7808319D01*
X19275943Y7826794D01*
X19245653Y7851653D01*
X19220794Y7881943D01*
X19202319Y7916507D01*
X19190945Y7954001D01*
X19186500Y7999138D01*
X19186500Y8637862D01*
X19190945Y8682999D01*
X19202319Y8720493D01*
X19220794Y8755057D01*
X19245653Y8785347D01*
X19275943Y8810206D01*
X19310507Y8828681D01*
X19348001Y8840055D01*
X19393138Y8844500D01*
X20131862Y8844500D01*
X20176999Y8840055D01*
X20176999Y8840055D01*
G37*
G36*
X18550500Y7967500D02*
X16948500Y7967500D01*
X16948500Y8669500D01*
X18550500Y8669500D01*
X18550500Y7967500D01*
X18550500Y7967500D01*
G37*
G36*
X13150500Y7967500D02*
X11548500Y7967500D01*
X11548500Y8669500D01*
X13150500Y8669500D01*
X13150500Y7967500D01*
X13150500Y7967500D01*
G37*
G36*
X9078499Y9094055D02*
X9115993Y9082681D01*
X9150557Y9064206D01*
X9180847Y9039347D01*
X9205706Y9009057D01*
X9224181Y8974493D01*
X9235555Y8936999D01*
X9240000Y8891862D01*
X9240000Y8253138D01*
X9235555Y8208001D01*
X9224181Y8170507D01*
X9205706Y8135943D01*
X9180847Y8105653D01*
X9150557Y8080794D01*
X9115993Y8062319D01*
X9078499Y8050945D01*
X9033362Y8046500D01*
X8294638Y8046500D01*
X8249501Y8050945D01*
X8212007Y8062319D01*
X8177443Y8080794D01*
X8147153Y8105653D01*
X8122294Y8135943D01*
X8103819Y8170507D01*
X8092445Y8208001D01*
X8088000Y8253138D01*
X8088000Y8891862D01*
X8092445Y8936999D01*
X8103819Y8974493D01*
X8122294Y9009057D01*
X8147153Y9039347D01*
X8177443Y9064206D01*
X8212007Y9082681D01*
X8249501Y9094055D01*
X8294638Y9098500D01*
X9033362Y9098500D01*
X9078499Y9094055D01*
X9078499Y9094055D01*
G37*
G36*
X10828499Y9094055D02*
X10865993Y9082681D01*
X10900557Y9064206D01*
X10930847Y9039347D01*
X10955706Y9009057D01*
X10974181Y8974493D01*
X10985555Y8936999D01*
X10990000Y8891862D01*
X10990000Y8253138D01*
X10985555Y8208001D01*
X10974181Y8170507D01*
X10955706Y8135943D01*
X10930847Y8105653D01*
X10900557Y8080794D01*
X10865993Y8062319D01*
X10828499Y8050945D01*
X10783362Y8046500D01*
X10044638Y8046500D01*
X9999501Y8050945D01*
X9962007Y8062319D01*
X9927443Y8080794D01*
X9897153Y8105653D01*
X9872294Y8135943D01*
X9853819Y8170507D01*
X9842445Y8208001D01*
X9838000Y8253138D01*
X9838000Y8891862D01*
X9842445Y8936999D01*
X9853819Y8974493D01*
X9872294Y9009057D01*
X9897153Y9039347D01*
X9927443Y9064206D01*
X9962007Y9082681D01*
X9999501Y9094055D01*
X10044638Y9098500D01*
X10783362Y9098500D01*
X10828499Y9094055D01*
X10828499Y9094055D01*
G37*
G36*
X18550500Y9237500D02*
X16948500Y9237500D01*
X16948500Y9939500D01*
X18550500Y9939500D01*
X18550500Y9237500D01*
X18550500Y9237500D01*
G37*
G36*
X13150500Y9237500D02*
X11548500Y9237500D01*
X11548500Y9939500D01*
X13150500Y9939500D01*
X13150500Y9237500D01*
X13150500Y9237500D01*
G37*
G36*
X19986499Y11380055D02*
X20023993Y11368681D01*
X20058557Y11350206D01*
X20088847Y11325347D01*
X20113706Y11295057D01*
X20132181Y11260493D01*
X20143555Y11222999D01*
X20148000Y11177862D01*
X20148000Y10539138D01*
X20143555Y10494001D01*
X20132181Y10456507D01*
X20113706Y10421943D01*
X20088847Y10391653D01*
X20058557Y10366794D01*
X20023993Y10348319D01*
X19986499Y10336945D01*
X19941362Y10332500D01*
X19202638Y10332500D01*
X19157501Y10336945D01*
X19120007Y10348319D01*
X19085443Y10366794D01*
X19055153Y10391653D01*
X19030294Y10421943D01*
X19011819Y10456507D01*
X19000445Y10494001D01*
X18996000Y10539138D01*
X18996000Y11177862D01*
X19000445Y11222999D01*
X19011819Y11260493D01*
X19030294Y11295057D01*
X19055153Y11325347D01*
X19085443Y11350206D01*
X19120007Y11368681D01*
X19157501Y11380055D01*
X19202638Y11384500D01*
X19941362Y11384500D01*
X19986499Y11380055D01*
X19986499Y11380055D01*
G37*
G36*
X9177499Y11380055D02*
X9214993Y11368681D01*
X9249557Y11350206D01*
X9279847Y11325347D01*
X9304706Y11295057D01*
X9323181Y11260493D01*
X9334555Y11222999D01*
X9339000Y11177862D01*
X9339000Y10539138D01*
X9334555Y10494001D01*
X9323181Y10456507D01*
X9304706Y10421943D01*
X9279847Y10391653D01*
X9249557Y10366794D01*
X9214993Y10348319D01*
X9177499Y10336945D01*
X9132362Y10332500D01*
X8393638Y10332500D01*
X8348501Y10336945D01*
X8311007Y10348319D01*
X8276443Y10366794D01*
X8246153Y10391653D01*
X8221294Y10421943D01*
X8202819Y10456507D01*
X8191445Y10494001D01*
X8187000Y10539138D01*
X8187000Y11177862D01*
X8191445Y11222999D01*
X8202819Y11260493D01*
X8221294Y11295057D01*
X8246153Y11325347D01*
X8276443Y11350206D01*
X8311007Y11368681D01*
X8348501Y11380055D01*
X8393638Y11384500D01*
X9132362Y11384500D01*
X9177499Y11380055D01*
X9177499Y11380055D01*
G37*
G36*
X10927499Y11380055D02*
X10964993Y11368681D01*
X10999557Y11350206D01*
X11029847Y11325347D01*
X11054706Y11295057D01*
X11073181Y11260493D01*
X11084555Y11222999D01*
X11089000Y11177862D01*
X11089000Y10539138D01*
X11084555Y10494001D01*
X11073181Y10456507D01*
X11054706Y10421943D01*
X11029847Y10391653D01*
X10999557Y10366794D01*
X10964993Y10348319D01*
X10927499Y10336945D01*
X10882362Y10332500D01*
X10143638Y10332500D01*
X10098501Y10336945D01*
X10061007Y10348319D01*
X10026443Y10366794D01*
X9996153Y10391653D01*
X9971294Y10421943D01*
X9952819Y10456507D01*
X9941445Y10494001D01*
X9937000Y10539138D01*
X9937000Y11177862D01*
X9941445Y11222999D01*
X9952819Y11260493D01*
X9971294Y11295057D01*
X9996153Y11325347D01*
X10026443Y11350206D01*
X10061007Y11368681D01*
X10098501Y11380055D01*
X10143638Y11384500D01*
X10882362Y11384500D01*
X10927499Y11380055D01*
X10927499Y11380055D01*
G37*
G36*
X21736499Y11380055D02*
X21773993Y11368681D01*
X21808557Y11350206D01*
X21838847Y11325347D01*
X21863706Y11295057D01*
X21882181Y11260493D01*
X21893555Y11222999D01*
X21898000Y11177862D01*
X21898000Y10539138D01*
X21893555Y10494001D01*
X21882181Y10456507D01*
X21863706Y10421943D01*
X21838847Y10391653D01*
X21808557Y10366794D01*
X21773993Y10348319D01*
X21736499Y10336945D01*
X21691362Y10332500D01*
X20952638Y10332500D01*
X20907501Y10336945D01*
X20870007Y10348319D01*
X20835443Y10366794D01*
X20805153Y10391653D01*
X20780294Y10421943D01*
X20761819Y10456507D01*
X20750445Y10494001D01*
X20746000Y10539138D01*
X20746000Y11177862D01*
X20750445Y11222999D01*
X20761819Y11260493D01*
X20780294Y11295057D01*
X20805153Y11325347D01*
X20835443Y11350206D01*
X20870007Y11368681D01*
X20907501Y11380055D01*
X20952638Y11384500D01*
X21691362Y11384500D01*
X21736499Y11380055D01*
X21736499Y11380055D01*
G37*
G36*
X13150500Y10507500D02*
X11548500Y10507500D01*
X11548500Y11209500D01*
X13150500Y11209500D01*
X13150500Y10507500D01*
X13150500Y10507500D01*
G37*
G36*
X18550500Y10507500D02*
X16948500Y10507500D01*
X16948500Y11209500D01*
X18550500Y11209500D01*
X18550500Y10507500D01*
X18550500Y10507500D01*
G37*
M02*
