G04 #@! TF.GenerationSoftware,KiCad,Pcbnew,5.0.2-bee76a0~70~ubuntu18.04.1*
G04 #@! TF.CreationDate,2019-07-29T11:10:54+02:00*
G04 #@! TF.ProjectId,SWD_Isolator,5357445f-4973-46f6-9c61-746f722e6b69,rev?*
G04 #@! TF.SameCoordinates,PX4148288PY2f7a4c0*
G04 #@! TF.FileFunction,Soldermask,Bot*
G04 #@! TF.FilePolarity,Negative*
%FSLAX46Y46*%
G04 Gerber Fmt 4.6, Leading zero omitted, Abs format (unit mm)*
G04 Created by KiCad (PCBNEW 5.0.2-bee76a0~70~ubuntu18.04.1) date pon 29 jul 2019 11:10:54 CEST*
%MOMM*%
%LPD*%
G01*
G04 APERTURE LIST*
%ADD10C,0.100000*%
G04 APERTURE END LIST*
D10*
G36*
X5028500Y432500D02*
X3226500Y432500D01*
X3226500Y2234500D01*
X5028500Y2234500D01*
X5028500Y432500D01*
X5028500Y432500D01*
G37*
G36*
X26872500Y432500D02*
X25070500Y432500D01*
X25070500Y2234500D01*
X26872500Y2234500D01*
X26872500Y432500D01*
X26872500Y432500D01*
G37*
G36*
X4237942Y4767982D02*
X4304127Y4761463D01*
X4417353Y4727116D01*
X4473967Y4709943D01*
X4612587Y4635848D01*
X4630491Y4626278D01*
X4666229Y4596948D01*
X4767686Y4513686D01*
X4850948Y4412229D01*
X4880278Y4376491D01*
X4880279Y4376489D01*
X4963943Y4219967D01*
X4963943Y4219966D01*
X5015463Y4050127D01*
X5032859Y3873500D01*
X5015463Y3696873D01*
X4981116Y3583647D01*
X4963943Y3527033D01*
X4889848Y3388413D01*
X4880278Y3370509D01*
X4850948Y3334771D01*
X4767686Y3233314D01*
X4666229Y3150052D01*
X4630491Y3120722D01*
X4630489Y3120721D01*
X4473967Y3037057D01*
X4417353Y3019884D01*
X4304127Y2985537D01*
X4237942Y2979018D01*
X4171760Y2972500D01*
X4083240Y2972500D01*
X4017057Y2979019D01*
X3950873Y2985537D01*
X3837647Y3019884D01*
X3781033Y3037057D01*
X3624511Y3120721D01*
X3624509Y3120722D01*
X3588771Y3150052D01*
X3487314Y3233314D01*
X3404052Y3334771D01*
X3374722Y3370509D01*
X3365152Y3388413D01*
X3291057Y3527033D01*
X3273884Y3583647D01*
X3239537Y3696873D01*
X3222141Y3873500D01*
X3239537Y4050127D01*
X3291057Y4219966D01*
X3291057Y4219967D01*
X3374721Y4376489D01*
X3374722Y4376491D01*
X3404052Y4412229D01*
X3487314Y4513686D01*
X3588771Y4596948D01*
X3624509Y4626278D01*
X3642413Y4635848D01*
X3781033Y4709943D01*
X3837647Y4727116D01*
X3950873Y4761463D01*
X4017058Y4767982D01*
X4083240Y4774500D01*
X4171760Y4774500D01*
X4237942Y4767982D01*
X4237942Y4767982D01*
G37*
G36*
X26081942Y4767982D02*
X26148127Y4761463D01*
X26261353Y4727116D01*
X26317967Y4709943D01*
X26456587Y4635848D01*
X26474491Y4626278D01*
X26510229Y4596948D01*
X26611686Y4513686D01*
X26694948Y4412229D01*
X26724278Y4376491D01*
X26724279Y4376489D01*
X26807943Y4219967D01*
X26807943Y4219966D01*
X26859463Y4050127D01*
X26876859Y3873500D01*
X26859463Y3696873D01*
X26825116Y3583647D01*
X26807943Y3527033D01*
X26733848Y3388413D01*
X26724278Y3370509D01*
X26694948Y3334771D01*
X26611686Y3233314D01*
X26510229Y3150052D01*
X26474491Y3120722D01*
X26474489Y3120721D01*
X26317967Y3037057D01*
X26261353Y3019884D01*
X26148127Y2985537D01*
X26081942Y2979018D01*
X26015760Y2972500D01*
X25927240Y2972500D01*
X25861057Y2979019D01*
X25794873Y2985537D01*
X25681647Y3019884D01*
X25625033Y3037057D01*
X25468511Y3120721D01*
X25468509Y3120722D01*
X25432771Y3150052D01*
X25331314Y3233314D01*
X25248052Y3334771D01*
X25218722Y3370509D01*
X25209152Y3388413D01*
X25135057Y3527033D01*
X25117884Y3583647D01*
X25083537Y3696873D01*
X25066141Y3873500D01*
X25083537Y4050127D01*
X25135057Y4219966D01*
X25135057Y4219967D01*
X25218721Y4376489D01*
X25218722Y4376491D01*
X25248052Y4412229D01*
X25331314Y4513686D01*
X25432771Y4596948D01*
X25468509Y4626278D01*
X25486413Y4635848D01*
X25625033Y4709943D01*
X25681647Y4727116D01*
X25794873Y4761463D01*
X25861058Y4767982D01*
X25927240Y4774500D01*
X26015760Y4774500D01*
X26081942Y4767982D01*
X26081942Y4767982D01*
G37*
G36*
X26081942Y7307982D02*
X26148127Y7301463D01*
X26261353Y7267116D01*
X26317967Y7249943D01*
X26456587Y7175848D01*
X26474491Y7166278D01*
X26510229Y7136948D01*
X26611686Y7053686D01*
X26694948Y6952229D01*
X26724278Y6916491D01*
X26724279Y6916489D01*
X26807943Y6759967D01*
X26807943Y6759966D01*
X26859463Y6590127D01*
X26876859Y6413500D01*
X26859463Y6236873D01*
X26825116Y6123647D01*
X26807943Y6067033D01*
X26733848Y5928413D01*
X26724278Y5910509D01*
X26694948Y5874771D01*
X26611686Y5773314D01*
X26510229Y5690052D01*
X26474491Y5660722D01*
X26474489Y5660721D01*
X26317967Y5577057D01*
X26261353Y5559884D01*
X26148127Y5525537D01*
X26081942Y5519018D01*
X26015760Y5512500D01*
X25927240Y5512500D01*
X25861057Y5519019D01*
X25794873Y5525537D01*
X25681647Y5559884D01*
X25625033Y5577057D01*
X25468511Y5660721D01*
X25468509Y5660722D01*
X25432771Y5690052D01*
X25331314Y5773314D01*
X25248052Y5874771D01*
X25218722Y5910509D01*
X25209152Y5928413D01*
X25135057Y6067033D01*
X25117884Y6123647D01*
X25083537Y6236873D01*
X25066141Y6413500D01*
X25083537Y6590127D01*
X25135057Y6759966D01*
X25135057Y6759967D01*
X25218721Y6916489D01*
X25218722Y6916491D01*
X25248052Y6952229D01*
X25331314Y7053686D01*
X25432771Y7136948D01*
X25468509Y7166278D01*
X25486413Y7175848D01*
X25625033Y7249943D01*
X25681647Y7267116D01*
X25794873Y7301463D01*
X25861058Y7307982D01*
X25927240Y7314500D01*
X26015760Y7314500D01*
X26081942Y7307982D01*
X26081942Y7307982D01*
G37*
G36*
X4237942Y7307982D02*
X4304127Y7301463D01*
X4417353Y7267116D01*
X4473967Y7249943D01*
X4612587Y7175848D01*
X4630491Y7166278D01*
X4666229Y7136948D01*
X4767686Y7053686D01*
X4850948Y6952229D01*
X4880278Y6916491D01*
X4880279Y6916489D01*
X4963943Y6759967D01*
X4963943Y6759966D01*
X5015463Y6590127D01*
X5032859Y6413500D01*
X5015463Y6236873D01*
X4981116Y6123647D01*
X4963943Y6067033D01*
X4889848Y5928413D01*
X4880278Y5910509D01*
X4850948Y5874771D01*
X4767686Y5773314D01*
X4666229Y5690052D01*
X4630491Y5660722D01*
X4630489Y5660721D01*
X4473967Y5577057D01*
X4417353Y5559884D01*
X4304127Y5525537D01*
X4237943Y5519019D01*
X4171760Y5512500D01*
X4083240Y5512500D01*
X4017057Y5519019D01*
X3950873Y5525537D01*
X3837647Y5559884D01*
X3781033Y5577057D01*
X3624511Y5660721D01*
X3624509Y5660722D01*
X3588771Y5690052D01*
X3487314Y5773314D01*
X3404052Y5874771D01*
X3374722Y5910509D01*
X3365152Y5928413D01*
X3291057Y6067033D01*
X3273884Y6123647D01*
X3239537Y6236873D01*
X3222141Y6413500D01*
X3239537Y6590127D01*
X3291057Y6759966D01*
X3291057Y6759967D01*
X3374721Y6916489D01*
X3374722Y6916491D01*
X3404052Y6952229D01*
X3487314Y7053686D01*
X3588771Y7136948D01*
X3624509Y7166278D01*
X3642413Y7175848D01*
X3781033Y7249943D01*
X3837647Y7267116D01*
X3950873Y7301463D01*
X4017058Y7307982D01*
X4083240Y7314500D01*
X4171760Y7314500D01*
X4237942Y7307982D01*
X4237942Y7307982D01*
G37*
G36*
X4237943Y9847981D02*
X4304127Y9841463D01*
X4417353Y9807116D01*
X4473967Y9789943D01*
X4612587Y9715848D01*
X4630491Y9706278D01*
X4666229Y9676948D01*
X4767686Y9593686D01*
X4850948Y9492229D01*
X4880278Y9456491D01*
X4880279Y9456489D01*
X4963943Y9299967D01*
X4963943Y9299966D01*
X5015463Y9130127D01*
X5032859Y8953500D01*
X5015463Y8776873D01*
X4981116Y8663647D01*
X4963943Y8607033D01*
X4889848Y8468413D01*
X4880278Y8450509D01*
X4850948Y8414771D01*
X4767686Y8313314D01*
X4666229Y8230052D01*
X4630491Y8200722D01*
X4630489Y8200721D01*
X4473967Y8117057D01*
X4417353Y8099884D01*
X4304127Y8065537D01*
X4237942Y8059018D01*
X4171760Y8052500D01*
X4083240Y8052500D01*
X4017058Y8059018D01*
X3950873Y8065537D01*
X3837647Y8099884D01*
X3781033Y8117057D01*
X3624511Y8200721D01*
X3624509Y8200722D01*
X3588771Y8230052D01*
X3487314Y8313314D01*
X3404052Y8414771D01*
X3374722Y8450509D01*
X3365152Y8468413D01*
X3291057Y8607033D01*
X3273884Y8663647D01*
X3239537Y8776873D01*
X3222141Y8953500D01*
X3239537Y9130127D01*
X3291057Y9299966D01*
X3291057Y9299967D01*
X3374721Y9456489D01*
X3374722Y9456491D01*
X3404052Y9492229D01*
X3487314Y9593686D01*
X3588771Y9676948D01*
X3624509Y9706278D01*
X3642413Y9715848D01*
X3781033Y9789943D01*
X3837647Y9807116D01*
X3950873Y9841463D01*
X4017057Y9847981D01*
X4083240Y9854500D01*
X4171760Y9854500D01*
X4237943Y9847981D01*
X4237943Y9847981D01*
G37*
G36*
X26081943Y9847981D02*
X26148127Y9841463D01*
X26261353Y9807116D01*
X26317967Y9789943D01*
X26456587Y9715848D01*
X26474491Y9706278D01*
X26510229Y9676948D01*
X26611686Y9593686D01*
X26694948Y9492229D01*
X26724278Y9456491D01*
X26724279Y9456489D01*
X26807943Y9299967D01*
X26807943Y9299966D01*
X26859463Y9130127D01*
X26876859Y8953500D01*
X26859463Y8776873D01*
X26825116Y8663647D01*
X26807943Y8607033D01*
X26733848Y8468413D01*
X26724278Y8450509D01*
X26694948Y8414771D01*
X26611686Y8313314D01*
X26510229Y8230052D01*
X26474491Y8200722D01*
X26474489Y8200721D01*
X26317967Y8117057D01*
X26261353Y8099884D01*
X26148127Y8065537D01*
X26081942Y8059018D01*
X26015760Y8052500D01*
X25927240Y8052500D01*
X25861058Y8059018D01*
X25794873Y8065537D01*
X25681647Y8099884D01*
X25625033Y8117057D01*
X25468511Y8200721D01*
X25468509Y8200722D01*
X25432771Y8230052D01*
X25331314Y8313314D01*
X25248052Y8414771D01*
X25218722Y8450509D01*
X25209152Y8468413D01*
X25135057Y8607033D01*
X25117884Y8663647D01*
X25083537Y8776873D01*
X25066141Y8953500D01*
X25083537Y9130127D01*
X25135057Y9299966D01*
X25135057Y9299967D01*
X25218721Y9456489D01*
X25218722Y9456491D01*
X25248052Y9492229D01*
X25331314Y9593686D01*
X25432771Y9676948D01*
X25468509Y9706278D01*
X25486413Y9715848D01*
X25625033Y9789943D01*
X25681647Y9807116D01*
X25794873Y9841463D01*
X25861057Y9847981D01*
X25927240Y9854500D01*
X26015760Y9854500D01*
X26081943Y9847981D01*
X26081943Y9847981D01*
G37*
G36*
X4237942Y12387982D02*
X4304127Y12381463D01*
X4417353Y12347116D01*
X4473967Y12329943D01*
X4612587Y12255848D01*
X4630491Y12246278D01*
X4666229Y12216948D01*
X4767686Y12133686D01*
X4850948Y12032229D01*
X4880278Y11996491D01*
X4880279Y11996489D01*
X4963943Y11839967D01*
X4963943Y11839966D01*
X5015463Y11670127D01*
X5032859Y11493500D01*
X5015463Y11316873D01*
X4981116Y11203647D01*
X4963943Y11147033D01*
X4889848Y11008413D01*
X4880278Y10990509D01*
X4850948Y10954771D01*
X4767686Y10853314D01*
X4666229Y10770052D01*
X4630491Y10740722D01*
X4630489Y10740721D01*
X4473967Y10657057D01*
X4417353Y10639884D01*
X4304127Y10605537D01*
X4237942Y10599018D01*
X4171760Y10592500D01*
X4083240Y10592500D01*
X4017058Y10599018D01*
X3950873Y10605537D01*
X3837647Y10639884D01*
X3781033Y10657057D01*
X3624511Y10740721D01*
X3624509Y10740722D01*
X3588771Y10770052D01*
X3487314Y10853314D01*
X3404052Y10954771D01*
X3374722Y10990509D01*
X3365152Y11008413D01*
X3291057Y11147033D01*
X3273884Y11203647D01*
X3239537Y11316873D01*
X3222141Y11493500D01*
X3239537Y11670127D01*
X3291057Y11839966D01*
X3291057Y11839967D01*
X3374721Y11996489D01*
X3374722Y11996491D01*
X3404052Y12032229D01*
X3487314Y12133686D01*
X3588771Y12216948D01*
X3624509Y12246278D01*
X3642413Y12255848D01*
X3781033Y12329943D01*
X3837647Y12347116D01*
X3950873Y12381463D01*
X4017058Y12387982D01*
X4083240Y12394500D01*
X4171760Y12394500D01*
X4237942Y12387982D01*
X4237942Y12387982D01*
G37*
G36*
X26081942Y12387982D02*
X26148127Y12381463D01*
X26261353Y12347116D01*
X26317967Y12329943D01*
X26456587Y12255848D01*
X26474491Y12246278D01*
X26510229Y12216948D01*
X26611686Y12133686D01*
X26694948Y12032229D01*
X26724278Y11996491D01*
X26724279Y11996489D01*
X26807943Y11839967D01*
X26807943Y11839966D01*
X26859463Y11670127D01*
X26876859Y11493500D01*
X26859463Y11316873D01*
X26825116Y11203647D01*
X26807943Y11147033D01*
X26733848Y11008413D01*
X26724278Y10990509D01*
X26694948Y10954771D01*
X26611686Y10853314D01*
X26510229Y10770052D01*
X26474491Y10740722D01*
X26474489Y10740721D01*
X26317967Y10657057D01*
X26261353Y10639884D01*
X26148127Y10605537D01*
X26081942Y10599018D01*
X26015760Y10592500D01*
X25927240Y10592500D01*
X25861058Y10599018D01*
X25794873Y10605537D01*
X25681647Y10639884D01*
X25625033Y10657057D01*
X25468511Y10740721D01*
X25468509Y10740722D01*
X25432771Y10770052D01*
X25331314Y10853314D01*
X25248052Y10954771D01*
X25218722Y10990509D01*
X25209152Y11008413D01*
X25135057Y11147033D01*
X25117884Y11203647D01*
X25083537Y11316873D01*
X25066141Y11493500D01*
X25083537Y11670127D01*
X25135057Y11839966D01*
X25135057Y11839967D01*
X25218721Y11996489D01*
X25218722Y11996491D01*
X25248052Y12032229D01*
X25331314Y12133686D01*
X25432771Y12216948D01*
X25468509Y12246278D01*
X25486413Y12255848D01*
X25625033Y12329943D01*
X25681647Y12347116D01*
X25794873Y12381463D01*
X25861058Y12387982D01*
X25927240Y12394500D01*
X26015760Y12394500D01*
X26081942Y12387982D01*
X26081942Y12387982D01*
G37*
M02*
