G04 #@! TF.GenerationSoftware,KiCad,Pcbnew,5.1.8-db9833491~88~ubuntu20.04.1*
G04 #@! TF.CreationDate,2021-03-13T16:05:35+01:00*
G04 #@! TF.ProjectId,SWD_Isolator,5357445f-4973-46f6-9c61-746f722e6b69,rev?*
G04 #@! TF.SameCoordinates,PX4160928PY2f7a4c0*
G04 #@! TF.FileFunction,Legend,Bot*
G04 #@! TF.FilePolarity,Positive*
%FSLAX46Y46*%
G04 Gerber Fmt 4.6, Leading zero omitted, Abs format (unit mm)*
G04 Created by KiCad (PCBNEW 5.1.8-db9833491~88~ubuntu20.04.1) date 2021-03-13 16:05:35*
%MOMM*%
%LPD*%
G01*
G04 APERTURE LIST*
%ADD10C,0.150000*%
%ADD11C,0.200000*%
%ADD12C,0.300000*%
G04 APERTURE END LIST*
D10*
X20348809Y11016686D02*
X20386904Y10902400D01*
X20386904Y10711924D01*
X20348809Y10635734D01*
X20310714Y10597639D01*
X20234523Y10559543D01*
X20158333Y10559543D01*
X20082142Y10597639D01*
X20044047Y10635734D01*
X20005952Y10711924D01*
X19967857Y10864305D01*
X19929761Y10940496D01*
X19891666Y10978591D01*
X19815476Y11016686D01*
X19739285Y11016686D01*
X19663095Y10978591D01*
X19625000Y10940496D01*
X19586904Y10864305D01*
X19586904Y10673829D01*
X19625000Y10559543D01*
X19586904Y10292877D02*
X20386904Y10102400D01*
X19815476Y9950020D01*
X20386904Y9797639D01*
X19586904Y9607162D01*
X20386904Y9302400D02*
X19586904Y9302400D01*
X19586904Y9111924D01*
X19625000Y8997639D01*
X19701190Y8921448D01*
X19777380Y8883353D01*
X19929761Y8845258D01*
X20044047Y8845258D01*
X20196428Y8883353D01*
X20272619Y8921448D01*
X20348809Y8997639D01*
X20386904Y9111924D01*
X20386904Y9302400D01*
X20348809Y8464305D02*
X20386904Y8464305D01*
X20463095Y8502400D01*
X20501190Y8540496D01*
X20386904Y7511924D02*
X19586904Y7511924D01*
X19663095Y7169067D02*
X19625000Y7130972D01*
X19586904Y7054781D01*
X19586904Y6864305D01*
X19625000Y6788115D01*
X19663095Y6750020D01*
X19739285Y6711924D01*
X19815476Y6711924D01*
X19929761Y6750020D01*
X20386904Y7207162D01*
X20386904Y6711924D01*
X20310714Y5911924D02*
X20348809Y5950020D01*
X20386904Y6064305D01*
X20386904Y6140496D01*
X20348809Y6254781D01*
X20272619Y6330972D01*
X20196428Y6369067D01*
X20044047Y6407162D01*
X19929761Y6407162D01*
X19777380Y6369067D01*
X19701190Y6330972D01*
X19625000Y6254781D01*
X19586904Y6140496D01*
X19586904Y6064305D01*
X19625000Y5950020D01*
X19663095Y5911924D01*
X20348809Y5530972D02*
X20386904Y5530972D01*
X20463095Y5569067D01*
X20501190Y5607162D01*
X19586904Y4578591D02*
X20234523Y4578591D01*
X20310714Y4540496D01*
X20348809Y4502400D01*
X20386904Y4426210D01*
X20386904Y4273829D01*
X20348809Y4197639D01*
X20310714Y4159543D01*
X20234523Y4121448D01*
X19586904Y4121448D01*
X20158333Y3778591D02*
X20158333Y3397639D01*
X20386904Y3854781D02*
X19586904Y3588115D01*
X20386904Y3321448D01*
X20386904Y2597639D02*
X20005952Y2864305D01*
X20386904Y3054781D02*
X19586904Y3054781D01*
X19586904Y2750020D01*
X19625000Y2673829D01*
X19663095Y2635734D01*
X19739285Y2597639D01*
X19853571Y2597639D01*
X19929761Y2635734D01*
X19967857Y2673829D01*
X20005952Y2750020D01*
X20005952Y3054781D01*
X19586904Y2369067D02*
X19586904Y1911924D01*
X20386904Y2140496D02*
X19586904Y2140496D01*
X21736904Y9092877D02*
X20936904Y9092877D01*
X21698809Y8750020D02*
X21736904Y8635734D01*
X21736904Y8445258D01*
X21698809Y8369067D01*
X21660714Y8330972D01*
X21584523Y8292877D01*
X21508333Y8292877D01*
X21432142Y8330972D01*
X21394047Y8369067D01*
X21355952Y8445258D01*
X21317857Y8597639D01*
X21279761Y8673829D01*
X21241666Y8711924D01*
X21165476Y8750020D01*
X21089285Y8750020D01*
X21013095Y8711924D01*
X20975000Y8673829D01*
X20936904Y8597639D01*
X20936904Y8407162D01*
X20975000Y8292877D01*
X20936904Y7797639D02*
X20936904Y7645258D01*
X20975000Y7569067D01*
X21051190Y7492877D01*
X21203571Y7454781D01*
X21470238Y7454781D01*
X21622619Y7492877D01*
X21698809Y7569067D01*
X21736904Y7645258D01*
X21736904Y7797639D01*
X21698809Y7873829D01*
X21622619Y7950020D01*
X21470238Y7988115D01*
X21203571Y7988115D01*
X21051190Y7950020D01*
X20975000Y7873829D01*
X20936904Y7797639D01*
X21736904Y6730972D02*
X21736904Y7111924D01*
X20936904Y7111924D01*
X21508333Y6502400D02*
X21508333Y6121448D01*
X21736904Y6578591D02*
X20936904Y6311924D01*
X21736904Y6045258D01*
X20936904Y5892877D02*
X20936904Y5435734D01*
X21736904Y5664305D02*
X20936904Y5664305D01*
X20936904Y5016686D02*
X20936904Y4864305D01*
X20975000Y4788115D01*
X21051190Y4711924D01*
X21203571Y4673829D01*
X21470238Y4673829D01*
X21622619Y4711924D01*
X21698809Y4788115D01*
X21736904Y4864305D01*
X21736904Y5016686D01*
X21698809Y5092877D01*
X21622619Y5169067D01*
X21470238Y5207162D01*
X21203571Y5207162D01*
X21051190Y5169067D01*
X20975000Y5092877D01*
X20936904Y5016686D01*
X21736904Y3873829D02*
X21355952Y4140496D01*
X21736904Y4330972D02*
X20936904Y4330972D01*
X20936904Y4026210D01*
X20975000Y3950020D01*
X21013095Y3911924D01*
X21089285Y3873829D01*
X21203571Y3873829D01*
X21279761Y3911924D01*
X21317857Y3950020D01*
X21355952Y4026210D01*
X21355952Y4330972D01*
D11*
X17513380Y6916420D02*
X17513380Y6344991D01*
X18513380Y6630705D02*
X17513380Y6630705D01*
X18227666Y6059277D02*
X18227666Y5583086D01*
X18513380Y6154515D02*
X17513380Y5821181D01*
X18513380Y5487848D01*
X18513380Y4583086D02*
X18037190Y4916420D01*
X18513380Y5154515D02*
X17513380Y5154515D01*
X17513380Y4773562D01*
X17561000Y4678324D01*
X17608619Y4630705D01*
X17703857Y4583086D01*
X17846714Y4583086D01*
X17941952Y4630705D01*
X17989571Y4678324D01*
X18037190Y4773562D01*
X18037190Y5154515D01*
X17561000Y3630705D02*
X17513380Y3725943D01*
X17513380Y3868800D01*
X17561000Y4011658D01*
X17656238Y4106896D01*
X17751476Y4154515D01*
X17941952Y4202134D01*
X18084809Y4202134D01*
X18275285Y4154515D01*
X18370523Y4106896D01*
X18465761Y4011658D01*
X18513380Y3868800D01*
X18513380Y3773562D01*
X18465761Y3630705D01*
X18418142Y3583086D01*
X18084809Y3583086D01*
X18084809Y3773562D01*
X17989571Y3154515D02*
X17989571Y2821181D01*
X18513380Y2678324D02*
X18513380Y3154515D01*
X17513380Y3154515D01*
X17513380Y2678324D01*
X17513380Y2392610D02*
X17513380Y1821181D01*
X18513380Y2106896D02*
X17513380Y2106896D01*
D12*
X5292457Y631772D02*
X5792457Y2131772D01*
X6292457Y631772D01*
X7649600Y1988915D02*
X7578171Y2060343D01*
X7363885Y2131772D01*
X7221028Y2131772D01*
X7006742Y2060343D01*
X6863885Y1917486D01*
X6792457Y1774629D01*
X6721028Y1488915D01*
X6721028Y1274629D01*
X6792457Y988915D01*
X6863885Y846058D01*
X7006742Y703200D01*
X7221028Y631772D01*
X7363885Y631772D01*
X7578171Y703200D01*
X7649600Y774629D01*
X9149600Y1988915D02*
X9078171Y2060343D01*
X8863885Y2131772D01*
X8721028Y2131772D01*
X8506742Y2060343D01*
X8363885Y1917486D01*
X8292457Y1774629D01*
X8221028Y1488915D01*
X8221028Y1274629D01*
X8292457Y988915D01*
X8363885Y846058D01*
X8506742Y703200D01*
X8721028Y631772D01*
X8863885Y631772D01*
X9078171Y703200D01*
X9149600Y774629D01*
X6292457Y3253200D02*
X6149600Y3181772D01*
X5935314Y3181772D01*
X5721028Y3253200D01*
X5578171Y3396058D01*
X5506742Y3538915D01*
X5435314Y3824629D01*
X5435314Y4038915D01*
X5506742Y4324629D01*
X5578171Y4467486D01*
X5721028Y4610343D01*
X5935314Y4681772D01*
X6078171Y4681772D01*
X6292457Y4610343D01*
X6363885Y4538915D01*
X6363885Y4038915D01*
X6078171Y4038915D01*
X7006742Y4681772D02*
X7006742Y3181772D01*
X7863885Y4681772D01*
X7863885Y3181772D01*
X8578171Y4681772D02*
X8578171Y3181772D01*
X8935314Y3181772D01*
X9149600Y3253200D01*
X9292457Y3396058D01*
X9363885Y3538915D01*
X9435314Y3824629D01*
X9435314Y4038915D01*
X9363885Y4324629D01*
X9292457Y4467486D01*
X9149600Y4610343D01*
X8935314Y4681772D01*
X8578171Y4681772D01*
X6363885Y7231772D02*
X5863885Y6517486D01*
X5506742Y7231772D02*
X5506742Y5731772D01*
X6078171Y5731772D01*
X6221028Y5803200D01*
X6292457Y5874629D01*
X6363885Y6017486D01*
X6363885Y6231772D01*
X6292457Y6374629D01*
X6221028Y6446058D01*
X6078171Y6517486D01*
X5506742Y6517486D01*
X7006742Y6446058D02*
X7506742Y6446058D01*
X7721028Y7231772D02*
X7006742Y7231772D01*
X7006742Y5731772D01*
X7721028Y5731772D01*
X8292457Y7160343D02*
X8506742Y7231772D01*
X8863885Y7231772D01*
X9006742Y7160343D01*
X9078171Y7088915D01*
X9149600Y6946058D01*
X9149600Y6803200D01*
X9078171Y6660343D01*
X9006742Y6588915D01*
X8863885Y6517486D01*
X8578171Y6446058D01*
X8435314Y6374629D01*
X8363885Y6303200D01*
X8292457Y6160343D01*
X8292457Y6017486D01*
X8363885Y5874629D01*
X8435314Y5803200D01*
X8578171Y5731772D01*
X8935314Y5731772D01*
X9149600Y5803200D01*
X9792457Y6446058D02*
X10292457Y6446058D01*
X10506742Y7231772D02*
X9792457Y7231772D01*
X9792457Y5731772D01*
X10506742Y5731772D01*
X10935314Y5731772D02*
X11792457Y5731772D01*
X11363885Y7231772D02*
X11363885Y5731772D01*
X6363885Y9638915D02*
X6292457Y9710343D01*
X6078171Y9781772D01*
X5935314Y9781772D01*
X5721028Y9710343D01*
X5578171Y9567486D01*
X5506742Y9424629D01*
X5435314Y9138915D01*
X5435314Y8924629D01*
X5506742Y8638915D01*
X5578171Y8496058D01*
X5721028Y8353200D01*
X5935314Y8281772D01*
X6078171Y8281772D01*
X6292457Y8353200D01*
X6363885Y8424629D01*
X7721028Y9781772D02*
X7006742Y9781772D01*
X7006742Y8281772D01*
X8221028Y9781772D02*
X8221028Y8281772D01*
X9078171Y9781772D02*
X8435314Y8924629D01*
X9078171Y8281772D02*
X8221028Y9138915D01*
X5506742Y12331772D02*
X5506742Y10831772D01*
X5863885Y10831772D01*
X6078171Y10903200D01*
X6221028Y11046058D01*
X6292457Y11188915D01*
X6363885Y11474629D01*
X6363885Y11688915D01*
X6292457Y11974629D01*
X6221028Y12117486D01*
X6078171Y12260343D01*
X5863885Y12331772D01*
X5506742Y12331772D01*
X6935314Y11903200D02*
X7649600Y11903200D01*
X6792457Y12331772D02*
X7292457Y10831772D01*
X7792457Y12331772D01*
X8078171Y10831772D02*
X8935314Y10831772D01*
X8506742Y12331772D02*
X8506742Y10831772D01*
X9363885Y11903200D02*
X10078171Y11903200D01*
X9221028Y12331772D02*
X9721028Y10831772D01*
X10221028Y12331772D01*
D11*
X12568180Y4884515D02*
X11568180Y4884515D01*
X11568180Y4503562D01*
X11615800Y4408324D01*
X11663419Y4360705D01*
X11758657Y4313086D01*
X11901514Y4313086D01*
X11996752Y4360705D01*
X12044371Y4408324D01*
X12091990Y4503562D01*
X12091990Y4884515D01*
X12568180Y3313086D02*
X12091990Y3646420D01*
X12568180Y3884515D02*
X11568180Y3884515D01*
X11568180Y3503562D01*
X11615800Y3408324D01*
X11663419Y3360705D01*
X11758657Y3313086D01*
X11901514Y3313086D01*
X11996752Y3360705D01*
X12044371Y3408324D01*
X12091990Y3503562D01*
X12091990Y3884515D01*
X11568180Y2694039D02*
X11568180Y2503562D01*
X11615800Y2408324D01*
X11711038Y2313086D01*
X11901514Y2265467D01*
X12234847Y2265467D01*
X12425323Y2313086D01*
X12520561Y2408324D01*
X12568180Y2503562D01*
X12568180Y2694039D01*
X12520561Y2789277D01*
X12425323Y2884515D01*
X12234847Y2932134D01*
X11901514Y2932134D01*
X11711038Y2884515D01*
X11615800Y2789277D01*
X11568180Y2694039D01*
X11615800Y1313086D02*
X11568180Y1408324D01*
X11568180Y1551181D01*
X11615800Y1694039D01*
X11711038Y1789277D01*
X11806276Y1836896D01*
X11996752Y1884515D01*
X12139609Y1884515D01*
X12330085Y1836896D01*
X12425323Y1789277D01*
X12520561Y1694039D01*
X12568180Y1551181D01*
X12568180Y1455943D01*
X12520561Y1313086D01*
X12472942Y1265467D01*
X12139609Y1265467D01*
X12139609Y1455943D01*
M02*
