G04 #@! TF.GenerationSoftware,KiCad,Pcbnew,5.1.8-db9833491~88~ubuntu20.04.1*
G04 #@! TF.CreationDate,2021-03-13T16:05:35+01:00*
G04 #@! TF.ProjectId,SWD_Isolator,5357445f-4973-46f6-9c61-746f722e6b69,rev?*
G04 #@! TF.SameCoordinates,PX4160928PY2f7a4c0*
G04 #@! TF.FileFunction,Legend,Top*
G04 #@! TF.FilePolarity,Positive*
%FSLAX46Y46*%
G04 Gerber Fmt 4.6, Leading zero omitted, Abs format (unit mm)*
G04 Created by KiCad (PCBNEW 5.1.8-db9833491~88~ubuntu20.04.1) date 2021-03-13 16:05:35*
%MOMM*%
%LPD*%
G01*
G04 APERTURE LIST*
%ADD10C,0.200000*%
%ADD11C,0.120000*%
%ADD12C,0.100000*%
G04 APERTURE END LIST*
D10*
X22400513Y12335337D02*
X22804574Y11931276D01*
X21895437Y11426200D02*
X22602544Y12133306D01*
X22737231Y10584406D02*
X22838246Y11156826D01*
X22333170Y10988467D02*
X23040277Y11695574D01*
X23309651Y11426200D01*
X23343322Y11325184D01*
X23343322Y11257841D01*
X23309651Y11156826D01*
X23208635Y11055810D01*
X23107620Y11022139D01*
X23040277Y11022139D01*
X22939261Y11055810D01*
X22669887Y11325184D01*
X24084101Y10584406D02*
X24050429Y10685421D01*
X23949414Y10786436D01*
X23814727Y10853780D01*
X23680040Y10853780D01*
X23579025Y10820108D01*
X23410666Y10719093D01*
X23309651Y10618078D01*
X23208635Y10449719D01*
X23174964Y10348704D01*
X23174964Y10214017D01*
X23242307Y10079330D01*
X23309651Y10011986D01*
X23444338Y9944643D01*
X23511681Y9944643D01*
X23747383Y10180345D01*
X23612696Y10315032D01*
X24353475Y10382375D02*
X24757536Y9978314D01*
X23848399Y9473238D02*
X24555505Y10180345D01*
X5891390Y9390228D02*
X5184284Y10097335D01*
X5453658Y10366709D01*
X5554673Y10400381D01*
X5622016Y10400381D01*
X5723032Y10366709D01*
X5824047Y10265694D01*
X5857719Y10164678D01*
X5857719Y10097335D01*
X5824047Y9996320D01*
X5554673Y9726946D01*
X7002558Y10501396D02*
X6430138Y10602411D01*
X6598497Y10097335D02*
X5891390Y10804442D01*
X6160764Y11073816D01*
X6261780Y11107488D01*
X6329123Y11107488D01*
X6430138Y11073816D01*
X6531154Y10972800D01*
X6564825Y10871785D01*
X6564825Y10804442D01*
X6531154Y10703426D01*
X6261780Y10434052D01*
X6733184Y11646236D02*
X6867871Y11780923D01*
X6968887Y11814594D01*
X7103574Y11814594D01*
X7271932Y11713579D01*
X7507635Y11477877D01*
X7608650Y11309518D01*
X7608650Y11174831D01*
X7574978Y11073816D01*
X7440291Y10939129D01*
X7339276Y10905457D01*
X7204589Y10905457D01*
X7036230Y11006472D01*
X6800528Y11242175D01*
X6699512Y11410533D01*
X6699512Y11545220D01*
X6733184Y11646236D01*
X7743337Y12589045D02*
X7642322Y12555373D01*
X7541306Y12454358D01*
X7473963Y12319671D01*
X7473963Y12184984D01*
X7507635Y12083968D01*
X7608650Y11915610D01*
X7709665Y11814594D01*
X7878024Y11713579D01*
X7979039Y11679907D01*
X8113726Y11679907D01*
X8248413Y11747251D01*
X8315757Y11814594D01*
X8383100Y11949281D01*
X8383100Y12016625D01*
X8147398Y12252327D01*
X8012711Y12117640D01*
D11*
X15000000Y1353500D02*
X16950000Y1353500D01*
X15000000Y1353500D02*
X13050000Y1353500D01*
X15000000Y11473500D02*
X16950000Y11473500D01*
X15000000Y11473500D02*
X11550000Y11473500D01*
X27870000Y12823500D02*
X27870000Y3500D01*
X27870000Y3500D02*
X30530000Y3500D01*
X30530000Y3500D02*
X30530000Y12823500D01*
X30530000Y12823500D02*
X27870000Y12823500D01*
X30530000Y11873500D02*
X36530000Y11873500D01*
X36530000Y11873500D02*
X36530000Y11113500D01*
X36530000Y11113500D02*
X30530000Y11113500D01*
X30530000Y11813500D02*
X36530000Y11813500D01*
X30530000Y11693500D02*
X36530000Y11693500D01*
X30530000Y11573500D02*
X36530000Y11573500D01*
X30530000Y11453500D02*
X36530000Y11453500D01*
X30530000Y11333500D02*
X36530000Y11333500D01*
X30530000Y11213500D02*
X36530000Y11213500D01*
X27540000Y11873500D02*
X27870000Y11873500D01*
X27540000Y11113500D02*
X27870000Y11113500D01*
X27870000Y10223500D02*
X30530000Y10223500D01*
X30530000Y9333500D02*
X36530000Y9333500D01*
X36530000Y9333500D02*
X36530000Y8573500D01*
X36530000Y8573500D02*
X30530000Y8573500D01*
X27472929Y9333500D02*
X27870000Y9333500D01*
X27472929Y8573500D02*
X27870000Y8573500D01*
X27870000Y7683500D02*
X30530000Y7683500D01*
X30530000Y6793500D02*
X36530000Y6793500D01*
X36530000Y6793500D02*
X36530000Y6033500D01*
X36530000Y6033500D02*
X30530000Y6033500D01*
X27472929Y6793500D02*
X27870000Y6793500D01*
X27472929Y6033500D02*
X27870000Y6033500D01*
X27870000Y5143500D02*
X30530000Y5143500D01*
X30530000Y4253500D02*
X36530000Y4253500D01*
X36530000Y4253500D02*
X36530000Y3493500D01*
X36530000Y3493500D02*
X30530000Y3493500D01*
X27472929Y4253500D02*
X27870000Y4253500D01*
X27472929Y3493500D02*
X27870000Y3493500D01*
X27870000Y2603500D02*
X30530000Y2603500D01*
X30530000Y1713500D02*
X36530000Y1713500D01*
X36530000Y1713500D02*
X36530000Y953500D01*
X36530000Y953500D02*
X30530000Y953500D01*
X27472929Y1713500D02*
X27870000Y1713500D01*
X27472929Y953500D02*
X27870000Y953500D01*
X25160000Y11493500D02*
X25160000Y12763500D01*
X25160000Y12763500D02*
X26430000Y12763500D01*
X2130000Y3500D02*
X2130000Y12823500D01*
X2130000Y12823500D02*
X-530000Y12823500D01*
X-530000Y12823500D02*
X-530000Y3500D01*
X-530000Y3500D02*
X2130000Y3500D01*
X-530000Y953500D02*
X-6530000Y953500D01*
X-6530000Y953500D02*
X-6530000Y1713500D01*
X-6530000Y1713500D02*
X-530000Y1713500D01*
X-530000Y1013500D02*
X-6530000Y1013500D01*
X-530000Y1133500D02*
X-6530000Y1133500D01*
X-530000Y1253500D02*
X-6530000Y1253500D01*
X-530000Y1373500D02*
X-6530000Y1373500D01*
X-530000Y1493500D02*
X-6530000Y1493500D01*
X-530000Y1613500D02*
X-6530000Y1613500D01*
X2460000Y953500D02*
X2130000Y953500D01*
X2460000Y1713500D02*
X2130000Y1713500D01*
X2130000Y2603500D02*
X-530000Y2603500D01*
X-530000Y3493500D02*
X-6530000Y3493500D01*
X-6530000Y3493500D02*
X-6530000Y4253500D01*
X-6530000Y4253500D02*
X-530000Y4253500D01*
X2527071Y3493500D02*
X2130000Y3493500D01*
X2527071Y4253500D02*
X2130000Y4253500D01*
X2130000Y5143500D02*
X-530000Y5143500D01*
X-530000Y6033500D02*
X-6530000Y6033500D01*
X-6530000Y6033500D02*
X-6530000Y6793500D01*
X-6530000Y6793500D02*
X-530000Y6793500D01*
X2527071Y6033500D02*
X2130000Y6033500D01*
X2527071Y6793500D02*
X2130000Y6793500D01*
X2130000Y7683500D02*
X-530000Y7683500D01*
X-530000Y8573500D02*
X-6530000Y8573500D01*
X-6530000Y8573500D02*
X-6530000Y9333500D01*
X-6530000Y9333500D02*
X-530000Y9333500D01*
X2527071Y8573500D02*
X2130000Y8573500D01*
X2527071Y9333500D02*
X2130000Y9333500D01*
X2130000Y10223500D02*
X-530000Y10223500D01*
X-530000Y11113500D02*
X-6530000Y11113500D01*
X-6530000Y11113500D02*
X-6530000Y11873500D01*
X-6530000Y11873500D02*
X-530000Y11873500D01*
X2527071Y11113500D02*
X2130000Y11113500D01*
X2527071Y11873500D02*
X2130000Y11873500D01*
X4840000Y1333500D02*
X4840000Y63500D01*
X4840000Y63500D02*
X3570000Y63500D01*
X8738000Y154000D02*
X11198000Y154000D01*
X11198000Y154000D02*
X11198000Y1624000D01*
X11198000Y1624000D02*
X8738000Y1624000D01*
X18687000Y154000D02*
X21147000Y154000D01*
X18687000Y1624000D02*
X18687000Y154000D01*
X21147000Y1624000D02*
X18687000Y1624000D01*
X20504267Y1839500D02*
X20161733Y1839500D01*
X20504267Y2859500D02*
X20161733Y2859500D01*
X9394733Y1903000D02*
X9737267Y1903000D01*
X9394733Y2923000D02*
X9737267Y2923000D01*
X20175733Y11368500D02*
X20518267Y11368500D01*
X20175733Y10348500D02*
X20518267Y10348500D01*
X9709267Y11368500D02*
X9366733Y11368500D01*
X9709267Y10348500D02*
X9366733Y10348500D01*
X22304000Y2088248D02*
X22304000Y2610752D01*
X23724000Y2088248D02*
X23724000Y2610752D01*
X7658500Y2151748D02*
X7658500Y2674252D01*
X6238500Y2151748D02*
X6238500Y2674252D01*
X20708767Y5268500D02*
X20366233Y5268500D01*
X20708767Y6288500D02*
X20366233Y6288500D01*
X20708767Y4764500D02*
X20366233Y4764500D01*
X20708767Y3744500D02*
X20366233Y3744500D01*
X20708767Y8828500D02*
X20366233Y8828500D01*
X20708767Y7808500D02*
X20366233Y7808500D01*
X9267733Y8062500D02*
X9610267Y8062500D01*
X9267733Y9082500D02*
X9610267Y9082500D01*
X9253733Y7558500D02*
X9596267Y7558500D01*
X9253733Y6538500D02*
X9596267Y6538500D01*
X9253733Y3998500D02*
X9596267Y3998500D01*
X9253733Y5018500D02*
X9596267Y5018500D01*
D12*
X14390476Y12538096D02*
X14390476Y11890477D01*
X14428571Y11814286D01*
X14466666Y11776191D01*
X14542857Y11738096D01*
X14695238Y11738096D01*
X14771428Y11776191D01*
X14809523Y11814286D01*
X14847619Y11890477D01*
X14847619Y12538096D01*
X15647619Y11738096D02*
X15190476Y11738096D01*
X15419047Y11738096D02*
X15419047Y12538096D01*
X15342857Y12423810D01*
X15266666Y12347620D01*
X15190476Y12309524D01*
X23961904Y933334D02*
X24533333Y933334D01*
X24647619Y895239D01*
X24723809Y819048D01*
X24761904Y704762D01*
X24761904Y628572D01*
X24038095Y1276191D02*
X24000000Y1314286D01*
X23961904Y1390477D01*
X23961904Y1580953D01*
X24000000Y1657143D01*
X24038095Y1695239D01*
X24114285Y1733334D01*
X24190476Y1733334D01*
X24304761Y1695239D01*
X24761904Y1238096D01*
X24761904Y1733334D01*
X5261904Y5533334D02*
X5833333Y5533334D01*
X5947619Y5495239D01*
X6023809Y5419048D01*
X6061904Y5304762D01*
X6061904Y5228572D01*
X6061904Y6333334D02*
X6061904Y5876191D01*
X6061904Y6104762D02*
X5261904Y6104762D01*
X5376190Y6028572D01*
X5452380Y5952381D01*
X5490476Y5876191D01*
X9934642Y3157572D02*
X9934642Y3757572D01*
X10077500Y3757572D01*
X10163214Y3729000D01*
X10220357Y3671858D01*
X10248928Y3614715D01*
X10277500Y3500429D01*
X10277500Y3414715D01*
X10248928Y3300429D01*
X10220357Y3243286D01*
X10163214Y3186143D01*
X10077500Y3157572D01*
X9934642Y3157572D01*
X10848928Y3157572D02*
X10506071Y3157572D01*
X10677500Y3157572D02*
X10677500Y3757572D01*
X10620357Y3671858D01*
X10563214Y3614715D01*
X10506071Y3586143D01*
X20920142Y3030572D02*
X20920142Y3630572D01*
X21063000Y3630572D01*
X21148714Y3602000D01*
X21205857Y3544858D01*
X21234428Y3487715D01*
X21263000Y3373429D01*
X21263000Y3287715D01*
X21234428Y3173429D01*
X21205857Y3116286D01*
X21148714Y3059143D01*
X21063000Y3030572D01*
X20920142Y3030572D01*
X21491571Y3573429D02*
X21520142Y3602000D01*
X21577285Y3630572D01*
X21720142Y3630572D01*
X21777285Y3602000D01*
X21805857Y3573429D01*
X21834428Y3516286D01*
X21834428Y3459143D01*
X21805857Y3373429D01*
X21463000Y3030572D01*
X21834428Y3030572D01*
X19434200Y3030572D02*
X19234200Y3316286D01*
X19091342Y3030572D02*
X19091342Y3630572D01*
X19319914Y3630572D01*
X19377057Y3602000D01*
X19405628Y3573429D01*
X19434200Y3516286D01*
X19434200Y3430572D01*
X19405628Y3373429D01*
X19377057Y3344858D01*
X19319914Y3316286D01*
X19091342Y3316286D01*
X19777057Y3373429D02*
X19719914Y3402000D01*
X19691342Y3430572D01*
X19662771Y3487715D01*
X19662771Y3516286D01*
X19691342Y3573429D01*
X19719914Y3602000D01*
X19777057Y3630572D01*
X19891342Y3630572D01*
X19948485Y3602000D01*
X19977057Y3573429D01*
X20005628Y3516286D01*
X20005628Y3487715D01*
X19977057Y3430572D01*
X19948485Y3402000D01*
X19891342Y3373429D01*
X19777057Y3373429D01*
X19719914Y3344858D01*
X19691342Y3316286D01*
X19662771Y3259143D01*
X19662771Y3144858D01*
X19691342Y3087715D01*
X19719914Y3059143D01*
X19777057Y3030572D01*
X19891342Y3030572D01*
X19948485Y3059143D01*
X19977057Y3087715D01*
X20005628Y3144858D01*
X20005628Y3259143D01*
X19977057Y3316286D01*
X19948485Y3344858D01*
X19891342Y3373429D01*
X8626500Y3157572D02*
X8426500Y3443286D01*
X8283642Y3157572D02*
X8283642Y3757572D01*
X8512214Y3757572D01*
X8569357Y3729000D01*
X8597928Y3700429D01*
X8626500Y3643286D01*
X8626500Y3557572D01*
X8597928Y3500429D01*
X8569357Y3471858D01*
X8512214Y3443286D01*
X8283642Y3443286D01*
X8826500Y3757572D02*
X9226500Y3757572D01*
X8969357Y3157572D01*
X20213666Y11715786D02*
X20175571Y11677691D01*
X20061285Y11639596D01*
X19985095Y11639596D01*
X19870809Y11677691D01*
X19794619Y11753881D01*
X19756523Y11830072D01*
X19718428Y11982453D01*
X19718428Y12096739D01*
X19756523Y12249120D01*
X19794619Y12325310D01*
X19870809Y12401500D01*
X19985095Y12439596D01*
X20061285Y12439596D01*
X20175571Y12401500D01*
X20213666Y12363405D01*
X20899380Y12172929D02*
X20899380Y11639596D01*
X20708904Y12477691D02*
X20518428Y11906262D01*
X21013666Y11906262D01*
X9355166Y11652286D02*
X9317071Y11614191D01*
X9202785Y11576096D01*
X9126595Y11576096D01*
X9012309Y11614191D01*
X8936119Y11690381D01*
X8898023Y11766572D01*
X8859928Y11918953D01*
X8859928Y12033239D01*
X8898023Y12185620D01*
X8936119Y12261810D01*
X9012309Y12338000D01*
X9126595Y12376096D01*
X9202785Y12376096D01*
X9317071Y12338000D01*
X9355166Y12299905D01*
X9659928Y12299905D02*
X9698023Y12338000D01*
X9774214Y12376096D01*
X9964690Y12376096D01*
X10040880Y12338000D01*
X10078976Y12299905D01*
X10117071Y12223715D01*
X10117071Y12147524D01*
X10078976Y12033239D01*
X9621833Y11576096D01*
X10117071Y11576096D01*
X24696714Y3981467D02*
X24734809Y3943372D01*
X24772904Y3829086D01*
X24772904Y3752896D01*
X24734809Y3638610D01*
X24658619Y3562420D01*
X24582428Y3524324D01*
X24430047Y3486229D01*
X24315761Y3486229D01*
X24163380Y3524324D01*
X24087190Y3562420D01*
X24011000Y3638610D01*
X23972904Y3752896D01*
X23972904Y3829086D01*
X24011000Y3943372D01*
X24049095Y3981467D01*
X23972904Y4248134D02*
X23972904Y4743372D01*
X24277666Y4476705D01*
X24277666Y4590991D01*
X24315761Y4667181D01*
X24353857Y4705277D01*
X24430047Y4743372D01*
X24620523Y4743372D01*
X24696714Y4705277D01*
X24734809Y4667181D01*
X24772904Y4590991D01*
X24772904Y4362420D01*
X24734809Y4286229D01*
X24696714Y4248134D01*
X7234214Y5010167D02*
X7272309Y4972072D01*
X7310404Y4857786D01*
X7310404Y4781596D01*
X7272309Y4667310D01*
X7196119Y4591120D01*
X7119928Y4553024D01*
X6967547Y4514929D01*
X6853261Y4514929D01*
X6700880Y4553024D01*
X6624690Y4591120D01*
X6548500Y4667310D01*
X6510404Y4781596D01*
X6510404Y4857786D01*
X6548500Y4972072D01*
X6586595Y5010167D01*
X7310404Y5772072D02*
X7310404Y5314929D01*
X7310404Y5543500D02*
X6510404Y5543500D01*
X6624690Y5467310D01*
X6700880Y5391120D01*
X6738976Y5314929D01*
X22804466Y5438096D02*
X22537800Y5819048D01*
X22347323Y5438096D02*
X22347323Y6238096D01*
X22652085Y6238096D01*
X22728276Y6200000D01*
X22766371Y6161905D01*
X22804466Y6085715D01*
X22804466Y5971429D01*
X22766371Y5895239D01*
X22728276Y5857143D01*
X22652085Y5819048D01*
X22347323Y5819048D01*
X23490180Y6238096D02*
X23337800Y6238096D01*
X23261609Y6200000D01*
X23223514Y6161905D01*
X23147323Y6047620D01*
X23109228Y5895239D01*
X23109228Y5590477D01*
X23147323Y5514286D01*
X23185419Y5476191D01*
X23261609Y5438096D01*
X23413990Y5438096D01*
X23490180Y5476191D01*
X23528276Y5514286D01*
X23566371Y5590477D01*
X23566371Y5780953D01*
X23528276Y5857143D01*
X23490180Y5895239D01*
X23413990Y5933334D01*
X23261609Y5933334D01*
X23185419Y5895239D01*
X23147323Y5857143D01*
X23109228Y5780953D01*
X22804466Y4438096D02*
X22537800Y4819048D01*
X22347323Y4438096D02*
X22347323Y5238096D01*
X22652085Y5238096D01*
X22728276Y5200000D01*
X22766371Y5161905D01*
X22804466Y5085715D01*
X22804466Y4971429D01*
X22766371Y4895239D01*
X22728276Y4857143D01*
X22652085Y4819048D01*
X22347323Y4819048D01*
X23528276Y5238096D02*
X23147323Y5238096D01*
X23109228Y4857143D01*
X23147323Y4895239D01*
X23223514Y4933334D01*
X23413990Y4933334D01*
X23490180Y4895239D01*
X23528276Y4857143D01*
X23566371Y4780953D01*
X23566371Y4590477D01*
X23528276Y4514286D01*
X23490180Y4476191D01*
X23413990Y4438096D01*
X23223514Y4438096D01*
X23147323Y4476191D01*
X23109228Y4514286D01*
X22880666Y7956596D02*
X22614000Y8337548D01*
X22423523Y7956596D02*
X22423523Y8756596D01*
X22728285Y8756596D01*
X22804476Y8718500D01*
X22842571Y8680405D01*
X22880666Y8604215D01*
X22880666Y8489929D01*
X22842571Y8413739D01*
X22804476Y8375643D01*
X22728285Y8337548D01*
X22423523Y8337548D01*
X23566380Y8489929D02*
X23566380Y7956596D01*
X23375904Y8794691D02*
X23185428Y8223262D01*
X23680666Y8223262D01*
X6624666Y8210596D02*
X6358000Y8591548D01*
X6167523Y8210596D02*
X6167523Y9010596D01*
X6472285Y9010596D01*
X6548476Y8972500D01*
X6586571Y8934405D01*
X6624666Y8858215D01*
X6624666Y8743929D01*
X6586571Y8667739D01*
X6548476Y8629643D01*
X6472285Y8591548D01*
X6167523Y8591548D01*
X6929428Y8934405D02*
X6967523Y8972500D01*
X7043714Y9010596D01*
X7234190Y9010596D01*
X7310380Y8972500D01*
X7348476Y8934405D01*
X7386571Y8858215D01*
X7386571Y8782024D01*
X7348476Y8667739D01*
X6891333Y8210596D01*
X7386571Y8210596D01*
X6624666Y6686596D02*
X6358000Y7067548D01*
X6167523Y6686596D02*
X6167523Y7486596D01*
X6472285Y7486596D01*
X6548476Y7448500D01*
X6586571Y7410405D01*
X6624666Y7334215D01*
X6624666Y7219929D01*
X6586571Y7143739D01*
X6548476Y7105643D01*
X6472285Y7067548D01*
X6167523Y7067548D01*
X6891333Y7486596D02*
X7386571Y7486596D01*
X7119904Y7181834D01*
X7234190Y7181834D01*
X7310380Y7143739D01*
X7348476Y7105643D01*
X7386571Y7029453D01*
X7386571Y6838977D01*
X7348476Y6762786D01*
X7310380Y6724691D01*
X7234190Y6686596D01*
X7005619Y6686596D01*
X6929428Y6724691D01*
X6891333Y6762786D01*
X9291666Y5289596D02*
X9025000Y5670548D01*
X8834523Y5289596D02*
X8834523Y6089596D01*
X9139285Y6089596D01*
X9215476Y6051500D01*
X9253571Y6013405D01*
X9291666Y5937215D01*
X9291666Y5822929D01*
X9253571Y5746739D01*
X9215476Y5708643D01*
X9139285Y5670548D01*
X8834523Y5670548D01*
X10053571Y5289596D02*
X9596428Y5289596D01*
X9825000Y5289596D02*
X9825000Y6089596D01*
X9748809Y5975310D01*
X9672619Y5899120D01*
X9596428Y5861024D01*
M02*
